<svg id="my-svg" width="100%" xmlns="http://www.w3.org/2000/svg" xmlns:xlink="http://www.w3.org/1999/xlink" class="classDiagram" style="max-width: 819.773px; background-color: white;" viewBox="0 0 819.7734375 1802" role="graphics-document document" aria-roledescription="class"><style>#my-svg{font-family:"trebuchet ms",verdana,arial,sans-serif;font-size:16px;fill:#333;}@keyframes edge-animation-frame{from{stroke-dashoffset:0;}}@keyframes dash{to{stroke-dashoffset:0;}}#my-svg .edge-animation-slow{stroke-dasharray:9,5!important;stroke-dashoffset:900;animation:dash 50s linear infinite;stroke-linecap:round;}#my-svg .edge-animation-fast{stroke-dasharray:9,5!important;stroke-dashoffset:900;animation:dash 20s linear infinite;stroke-linecap:round;}#my-svg .error-icon{fill:#552222;}#my-svg .error-text{fill:#552222;stroke:#552222;}#my-svg .edge-thickness-normal{stroke-width:1px;}#my-svg .edge-thickness-thick{stroke-width:3.5px;}#my-svg .edge-pattern-solid{stroke-dasharray:0;}#my-svg .edge-thickness-invisible{stroke-width:0;fill:none;}#my-svg .edge-pattern-dashed{stroke-dasharray:3;}#my-svg .edge-pattern-dotted{stroke-dasharray:2;}#my-svg .marker{fill:#333333;stroke:#333333;}#my-svg .marker.cross{stroke:#333333;}#my-svg svg{font-family:"trebuchet ms",verdana,arial,sans-serif;font-size:16px;}#my-svg p{margin:0;}#my-svg g.classGroup text{fill:#9370DB;stroke:none;font-family:"trebuchet ms",verdana,arial,sans-serif;font-size:10px;}#my-svg g.classGroup text .title{font-weight:bolder;}#my-svg .cluster-label text{fill:#333;}#my-svg .cluster-label span{color:#333;}#my-svg .cluster-label span p{background-color:transparent;}#my-svg .cluster rect{fill:#ffffde;stroke:#aaaa33;stroke-width:1px;}#my-svg .cluster text{fill:#333;}#my-svg .cluster span{color:#333;}#my-svg .nodeLabel,#my-svg .edgeLabel{color:#131300;}#my-svg .edgeLabel .label rect{fill:#ECECFF;}#my-svg .label text{fill:#131300;}#my-svg .labelBkg{background:#ECECFF;}#my-svg .edgeLabel .label span{background:#ECECFF;}#my-svg .classTitle{font-weight:bolder;}#my-svg .node rect,#my-svg .node circle,#my-svg .node ellipse,#my-svg .node polygon,#my-svg .node path{fill:#ECECFF;stroke:#9370DB;stroke-width:1px;}#my-svg .divider{stroke:#9370DB;stroke-width:1;}#my-svg g.clickable{cursor:pointer;}#my-svg g.classGroup rect{fill:#ECECFF;stroke:#9370DB;}#my-svg g.classGroup line{stroke:#9370DB;stroke-width:1;}#my-svg .classLabel .box{stroke:none;stroke-width:0;fill:#ECECFF;opacity:0.5;}#my-svg .classLabel .label{fill:#9370DB;font-size:10px;}#my-svg .relation{stroke:#333333;stroke-width:1;fill:none;}#my-svg .dashed-line{stroke-dasharray:3;}#my-svg .dotted-line{stroke-dasharray:1 2;}#my-svg #compositionStart,#my-svg .composition{fill:#333333!important;stroke:#333333!important;stroke-width:1;}#my-svg #compositionEnd,#my-svg .composition{fill:#333333!important;stroke:#333333!important;stroke-width:1;}#my-svg #dependencyStart,#my-svg .dependency{fill:#333333!important;stroke:#333333!important;stroke-width:1;}#my-svg #dependencyStart,#my-svg .dependency{fill:#333333!important;stroke:#333333!important;stroke-width:1;}#my-svg #extensionStart,#my-svg .extension{fill:transparent!important;stroke:#333333!important;stroke-width:1;}#my-svg #extensionEnd,#my-svg .extension{fill:transparent!important;stroke:#333333!important;stroke-width:1;}#my-svg #aggregationStart,#my-svg .aggregation{fill:transparent!important;stroke:#333333!important;stroke-width:1;}#my-svg #aggregationEnd,#my-svg .aggregation{fill:transparent!important;stroke:#333333!important;stroke-width:1;}#my-svg #lollipopStart,#my-svg .lollipop{fill:#ECECFF!important;stroke:#333333!important;stroke-width:1;}#my-svg #lollipopEnd,#my-svg .lollipop{fill:#ECECFF!important;stroke:#333333!important;stroke-width:1;}#my-svg .edgeTerminals{font-size:11px;line-height:initial;}#my-svg .classTitleText{text-anchor:middle;font-size:18px;fill:#333;}#my-svg .label-icon{display:inline-block;height:1em;overflow:visible;vertical-align:-0.125em;}#my-svg .node .label-icon path{fill:currentColor;stroke:revert;stroke-width:revert;}#my-svg :root{--mermaid-font-family:"trebuchet ms",verdana,arial,sans-serif;}</style><g><defs><marker id="my-svg_class-aggregationStart" class="marker aggregation class" refX="18" refY="7" markerWidth="190" markerHeight="240" orient="auto"><path d="M 18,7 L9,13 L1,7 L9,1 Z"/></marker></defs><defs><marker id="my-svg_class-aggregationEnd" class="marker aggregation class" refX="1" refY="7" markerWidth="20" markerHeight="28" orient="auto"><path d="M 18,7 L9,13 L1,7 L9,1 Z"/></marker></defs><defs><marker id="my-svg_class-extensionStart" class="marker extension class" refX="18" refY="7" markerWidth="190" markerHeight="240" orient="auto"><path d="M 1,7 L18,13 V 1 Z"/></marker></defs><defs><marker id="my-svg_class-extensionEnd" class="marker extension class" refX="1" refY="7" markerWidth="20" markerHeight="28" orient="auto"><path d="M 1,1 V 13 L18,7 Z"/></marker></defs><defs><marker id="my-svg_class-compositionStart" class="marker composition class" refX="18" refY="7" markerWidth="190" markerHeight="240" orient="auto"><path d="M 18,7 L9,13 L1,7 L9,1 Z"/></marker></defs><defs><marker id="my-svg_class-compositionEnd" class="marker composition class" refX="1" refY="7" markerWidth="20" markerHeight="28" orient="auto"><path d="M 18,7 L9,13 L1,7 L9,1 Z"/></marker></defs><defs><marker id="my-svg_class-dependencyStart" class="marker dependency class" refX="6" refY="7" markerWidth="190" markerHeight="240" orient="auto"><path d="M 5,7 L9,13 L1,7 L9,1 Z"/></marker></defs><defs><marker id="my-svg_class-dependencyEnd" class="marker dependency class" refX="13" refY="7" markerWidth="20" markerHeight="28" orient="auto"><path d="M 18,7 L9,13 L14,7 L9,1 Z"/></marker></defs><defs><marker id="my-svg_class-lollipopStart" class="marker lollipop class" refX="13" refY="7" markerWidth="190" markerHeight="240" orient="auto"><circle fill="transparent" cx="7" cy="7" r="6"/></marker></defs><defs><marker id="my-svg_class-lollipopEnd" class="marker lollipop class" refX="1" refY="7" markerWidth="190" markerHeight="240" orient="auto"><circle fill="transparent" cx="7" cy="7" r="6"/></marker></defs><g class="root"><g class="clusters"/><g class="edgePaths"><path d="M136.516,224L136.516,230.167C136.516,236.333,136.516,248.667,136.516,260C136.516,271.333,136.516,281.667,136.516,286.833L136.516,292" id="id_SuperAdmin_Institution_1" class="edge-thickness-normal edge-pattern-solid relation" style=";;;" data-edge="true" data-et="edge" data-id="id_SuperAdmin_Institution_1" data-points="W3sieCI6MTM2LjUxNTYyNSwieSI6MjI0fSx7IngiOjEzNi41MTU2MjUsInkiOjI2MX0seyJ4IjoxMzYuNTE1NjI1LCJ5IjoyOTh9XQ==" marker-end="url(#my-svg_class-dependencyEnd)"/><path d="M136.516,514L136.516,520.167C136.516,526.333,136.516,538.667,140.573,550.202C144.63,561.738,152.745,572.475,156.802,577.844L160.859,583.213" id="id_Institution_User_2" class="edge-thickness-normal edge-pattern-solid relation" style=";;;" data-edge="true" data-et="edge" data-id="id_Institution_User_2" data-points="W3sieCI6MTM2LjUxNTYyNSwieSI6NTE0fSx7IngiOjEzNi41MTU2MjUsInkiOjU1MX0seyJ4IjoxNjQuNDc2NDM1MzczNTIwNywieSI6NTg4fV0=" marker-end="url(#my-svg_class-dependencyEnd)"/><path d="M264.229,852L264.229,858.167C264.229,864.333,264.229,876.667,265.912,888.048C267.596,899.43,270.963,909.86,272.647,915.075L274.331,920.29" id="id_User_ComplaintTracking_3" class="edge-thickness-normal edge-pattern-solid relation" style=";;;" data-edge="true" data-et="edge" data-id="id_User_ComplaintTracking_3" data-points="W3sieCI6MjY0LjIyODUxNTYyNSwieSI6ODUyfSx7IngiOjI2NC4yMjg1MTU2MjUsInkiOjg4OX0seyJ4IjoyNzYuMTczOTc3NDA4NDM5NSwieSI6OTI2fV0=" marker-end="url(#my-svg_class-dependencyEnd)"/><path d="M314.916,1166L314.916,1172.167C314.916,1178.333,314.916,1190.667,319.289,1202.223C323.662,1213.78,332.408,1224.56,336.781,1229.95L341.154,1235.341" id="id_ComplaintTracking_Complaint_4" class="edge-thickness-normal edge-pattern-solid relation" style=";;;" data-edge="true" data-et="edge" data-id="id_ComplaintTracking_Complaint_4" data-points="W3sieCI6MzE0LjkxNjAxNTYyNSwieSI6MTE2Nn0seyJ4IjozMTQuOTE2MDE1NjI1LCJ5IjoxMjAzfSx7IngiOjM0NC45MzM3OTg3NzQxNzEyNCwieSI6MTI0MH1d" marker-end="url(#my-svg_class-dependencyEnd)"/><path d="M461.76,1528L461.76,1534.167C461.76,1540.333,461.76,1552.667,461.76,1564C461.76,1575.333,461.76,1585.667,461.76,1590.833L461.76,1596" id="id_Complaint_ChatMessage_5" class="edge-thickness-normal edge-pattern-solid relation" style=";;;" data-edge="true" data-et="edge" data-id="id_Complaint_ChatMessage_5" data-points="W3sieCI6NDYxLjc1OTc2NTYyNSwieSI6MTUyOH0seyJ4Ijo0NjEuNzU5NzY1NjI1LCJ5IjoxNTY1fSx7IngiOjQ2MS43NTk3NjU2MjUsInkiOjE2MDJ9XQ==" marker-end="url(#my-svg_class-dependencyEnd)"/><path d="M391.941,493L391.941,502.667C391.941,512.333,391.941,531.667,387.884,546.702C383.827,561.738,375.712,572.475,371.655,577.844L367.598,583.213" id="id_AuthController_User_6" class="edge-thickness-normal edge-pattern-solid relation" style=";;;" data-edge="true" data-et="edge" data-id="id_AuthController_User_6" data-points="W3sieCI6MzkxLjk0MTQwNjI1LCJ5Ijo0OTN9LHsieCI6MzkxLjk0MTQwNjI1LCJ5Ijo1NTF9LHsieCI6MzYzLjk4MDU5NTg3NjQ3OTMsInkiOjU4OH1d" marker-end="url(#my-svg_class-dependencyEnd)"/><path d="M649.016,831L650.023,840.667C651.031,850.333,653.045,869.667,654.052,905.5C655.059,941.333,655.059,993.667,655.059,1046C655.059,1098.333,655.059,1150.667,649.203,1182.316C643.347,1213.966,631.636,1224.933,625.78,1230.416L619.924,1235.899" id="id_ComplaintController_Complaint_7" class="edge-thickness-normal edge-pattern-solid relation" style=";;;" data-edge="true" data-et="edge" data-id="id_ComplaintController_Complaint_7" data-points="W3sieCI6NjQ5LjAxNjQ4MDIxNDQ5NywieSI6ODMxfSx7IngiOjY1NS4wNTg1OTM3NSwieSI6ODg5fSx7IngiOjY1NS4wNTg1OTM3NSwieSI6MTA0Nn0seyJ4Ijo2NTUuMDU4NTkzNzUsInkiOjEyMDN9LHsieCI6NjE1LjU0NDQ2ODY2MzY3NCwieSI6MTI0MH1d" marker-end="url(#my-svg_class-dependencyEnd)"/><path d="M541.005,831L532.606,840.667C524.207,850.333,507.408,869.667,492.853,884.834C478.299,900.001,465.988,911.001,459.833,916.502L453.678,922.002" id="id_ComplaintController_ComplaintTracking_8" class="edge-thickness-normal edge-pattern-solid relation" style=";;;" data-edge="true" data-et="edge" data-id="id_ComplaintController_ComplaintTracking_8" data-points="W3sieCI6NTQxLjAwNTQ1NDg4MTY1NjgsInkiOjgzMX0seyJ4Ijo0OTAuNjA5Mzc1LCJ5Ijo4ODl9LHsieCI6NDQ5LjIwMzkzMzYxODYzMDYsInkiOjkyNn1d" marker-end="url(#my-svg_class-dependencyEnd)"/></g><g class="edgeLabels"><g class="edgeLabel" transform="translate(136.515625, 261)"><g class="label" data-id="id_SuperAdmin_Institution_1" transform="translate(-32.0390625, -12)"><foreignObject width="64.078125" height="24"><div xmlns="http://www.w3.org/1999/xhtml" class="labelBkg" style="display: table-cell; white-space: nowrap; line-height: 1.5; max-width: 200px; text-align: center;"><span class="edgeLabel"><p>approves</p></span></div></foreignObject></g></g><g class="edgeLabel" transform="translate(136.515625, 551)"><g class="label" data-id="id_Institution_User_2" transform="translate(-29.890625, -12)"><foreignObject width="59.78125" height="24"><div xmlns="http://www.w3.org/1999/xhtml" class="labelBkg" style="display: table-cell; white-space: nowrap; line-height: 1.5; max-width: 200px; text-align: center;"><span class="edgeLabel"><p>contains</p></span></div></foreignObject></g></g><g class="edgeLabel" transform="translate(264.228515625, 889)"><g class="label" data-id="id_User_ComplaintTracking_3" transform="translate(-66.1640625, -12)"><foreignObject width="132.328125" height="24"><div xmlns="http://www.w3.org/1999/xhtml" class="labelBkg" style="display: table-cell; white-space: nowrap; line-height: 1.5; max-width: 200px; text-align: center;"><span class="edgeLabel"><p>files complaint via</p></span></div></foreignObject></g></g><g class="edgeLabel" transform="translate(314.916015625, 1203)"><g class="label" data-id="id_ComplaintTracking_Complaint_4" transform="translate(-28.4140625, -12)"><foreignObject width="56.828125" height="24"><div xmlns="http://www.w3.org/1999/xhtml" class="labelBkg" style="display: table-cell; white-space: nowrap; line-height: 1.5; max-width: 200px; text-align: center;"><span class="edgeLabel"><p>maps to</p></span></div></foreignObject></g></g><g class="edgeLabel" transform="translate(461.759765625, 1565)"><g class="label" data-id="id_Complaint_ChatMessage_5" transform="translate(-11.8125, -12)"><foreignObject width="23.625" height="24"><div xmlns="http://www.w3.org/1999/xhtml" class="labelBkg" style="display: table-cell; white-space: nowrap; line-height: 1.5; max-width: 200px; text-align: center;"><span class="edgeLabel"><p>has</p></span></div></foreignObject></g></g><g class="edgeLabel" transform="translate(391.94140625, 551)"><g class="label" data-id="id_AuthController_User_6" transform="translate(-31.0390625, -12)"><foreignObject width="62.078125" height="24"><div xmlns="http://www.w3.org/1999/xhtml" class="labelBkg" style="display: table-cell; white-space: nowrap; line-height: 1.5; max-width: 200px; text-align: center;"><span class="edgeLabel"><p>manages</p></span></div></foreignObject></g></g><g class="edgeLabel" transform="translate(655.05859375, 1046)"><g class="label" data-id="id_ComplaintController_Complaint_7" transform="translate(-31.0390625, -12)"><foreignObject width="62.078125" height="24"><div xmlns="http://www.w3.org/1999/xhtml" class="labelBkg" style="display: table-cell; white-space: nowrap; line-height: 1.5; max-width: 200px; text-align: center;"><span class="edgeLabel"><p>manages</p></span></div></foreignObject></g></g><g class="edgeLabel" transform="translate(497.59708, 880.95797)"><g class="label" data-id="id_ComplaintController_ComplaintTracking_8" transform="translate(-15.2109375, -12)"><foreignObject width="30.421875" height="24"><div xmlns="http://www.w3.org/1999/xhtml" class="labelBkg" style="display: table-cell; white-space: nowrap; line-height: 1.5; max-width: 200px; text-align: center;"><span class="edgeLabel"><p>uses</p></span></div></foreignObject></g></g><g class="edgeTerminals" transform="translate(121.51562750000015, 531.5000021428572)"><g class="inner" transform="translate(-2.890625, -8.25)"><foreignObject width="5.78125" height="16.5" style="width: 9px; height: 12px;"><div xmlns="http://www.w3.org/1999/xhtml" style="display: table-cell; white-space: nowrap; line-height: 1.5;"><span class="edgeLabel"><p>1</p></span></div></foreignObject></g></g><g class="edgeTerminals" transform="translate(446.7597678125001, 1545.500001875)"><g class="inner" transform="translate(-2.890625, -8.25)"><foreignObject width="5.78125" height="16.5" style="width: 9px; height: 12px;"><div xmlns="http://www.w3.org/1999/xhtml" style="display: table-cell; white-space: nowrap; line-height: 1.5;"><span class="edgeLabel"><p>1</p></span></div></foreignObject></g></g><g class="edgeTerminals" transform="translate(160.8927846377887, 559.994696238954)"><g class="inner" transform="translate(-13.1796875, -8.25)"/><foreignObject width="26.359375" height="16.5" style="width: 36px; height: 12px;"><div xmlns="http://www.w3.org/1999/xhtml" style="display: table-cell; white-space: nowrap; line-height: 1.5;"><span class="edgeLabel"><p>many</p></span></div></foreignObject></g><g class="edgeTerminals" transform="translate(471.7597678124999, 1579.500001875)"><g class="inner" transform="translate(-13.1796875, -8.25)"/><foreignObject width="26.359375" height="16.5" style="width: 36px; height: 12px;"><div xmlns="http://www.w3.org/1999/xhtml" style="display: table-cell; white-space: nowrap; line-height: 1.5;"><span class="edgeLabel"><p>many</p></span></div></foreignObject></g></g><g class="nodes"><g class="node default" id="classId-SuperAdmin-0" transform="translate(136.515625, 116)"><g class="basic label-container"><path d="M-128.515625 -108 L128.515625 -108 L128.515625 108 L-128.515625 108" stroke="none" stroke-width="0" fill="#ECECFF" style=""/><path d="M-128.515625 -108 C-64.28729722164012 -108, -0.058969443280233236 -108, 128.515625 -108 M-128.515625 -108 C-65.94390745083186 -108, -3.372189901663731 -108, 128.515625 -108 M128.515625 -108 C128.515625 -42.2745164590026, 128.515625 23.450967081994804, 128.515625 108 M128.515625 -108 C128.515625 -33.0641421522662, 128.515625 41.8717156954676, 128.515625 108 M128.515625 108 C53.74281998165168 108, -21.029985036696644 108, -128.515625 108 M128.515625 108 C46.636375144730465 108, -35.24287471053907 108, -128.515625 108 M-128.515625 108 C-128.515625 60.92390110872919, -128.515625 13.84780221745838, -128.515625 -108 M-128.515625 108 C-128.515625 49.418974385387315, -128.515625 -9.16205122922537, -128.515625 -108" stroke="#9370DB" stroke-width="1.3" fill="none" stroke-dasharray="0 0" style=""/></g><g class="annotation-group text" transform="translate(0, -84)"/><g class="label-group text" transform="translate(-45.1875, -84)"><g class="label" style="font-weight: bolder" transform="translate(0,-12)"><foreignObject width="90.375" height="24"><div xmlns="http://www.w3.org/1999/xhtml" style="display: table-cell; white-space: nowrap; line-height: 1.5; max-width: 133px; text-align: center;"><span class="nodeLabel markdown-node-label" style=""><p>SuperAdmin</p></span></div></foreignObject></g></g><g class="members-group text" transform="translate(-116.515625, -36)"><g class="label" style="" transform="translate(0,-12)"><foreignObject width="93.96875" height="24"><div xmlns="http://www.w3.org/1999/xhtml" style="display: table-cell; white-space: nowrap; line-height: 1.5; max-width: 142px; text-align: center;"><span class="nodeLabel markdown-node-label" style=""><p>+String name</p></span></div></foreignObject></g><g class="label" style="" transform="translate(0,12)"><foreignObject width="94.5" height="24"><div xmlns="http://www.w3.org/1999/xhtml" style="display: table-cell; white-space: nowrap; line-height: 1.5; max-width: 144px; text-align: center;"><span class="nodeLabel markdown-node-label" style=""><p>+String email</p></span></div></foreignObject></g></g><g class="methods-group text" transform="translate(-116.515625, 36)"><g class="label" style="" transform="translate(0,-12)"><foreignObject width="187.84375" height="24"><div xmlns="http://www.w3.org/1999/xhtml" style="display: table-cell; white-space: nowrap; line-height: 1.5; max-width: 227px; text-align: center;"><span class="nodeLabel markdown-node-label" style=""><p>+approveInstitution(orgId)</p></span></div></foreignObject></g><g class="label" style="" transform="translate(0,12)"><foreignObject width="174.046875" height="24"><div xmlns="http://www.w3.org/1999/xhtml" style="display: table-cell; white-space: nowrap; line-height: 1.5; max-width: 211px; text-align: center;"><span class="nodeLabel markdown-node-label" style=""><p>+rejectInstitution(orgId)</p></span></div></foreignObject></g><g class="label" style="" transform="translate(0,36)"><foreignObject width="141.5" height="24"><div xmlns="http://www.w3.org/1999/xhtml" style="display: table-cell; white-space: nowrap; line-height: 1.5; max-width: 187px; text-align: center;"><span class="nodeLabel markdown-node-label" style=""><p>+listAllInstitutions()</p></span></div></foreignObject></g></g><g class="divider" style=""><path d="M-128.515625 -60 C-59.547220915131774 -60, 9.421183169736452 -60, 128.515625 -60 M-128.515625 -60 C-50.08926487022126 -60, 28.337095259557486 -60, 128.515625 -60" stroke="#9370DB" stroke-width="1.3" fill="none" stroke-dasharray="0 0" style=""/></g><g class="divider" style=""><path d="M-128.515625 12 C-73.19625049729355 12, -17.876875994587095 12, 128.515625 12 M-128.515625 12 C-60.97317772367727 12, 6.569269552645466 12, 128.515625 12" stroke="#9370DB" stroke-width="1.3" fill="none" stroke-dasharray="0 0" style=""/></g></g><g class="node default" id="classId-Institution-1" transform="translate(136.515625, 406)"><g class="basic label-container"><path d="M-99.86328125 -108 L99.86328125 -108 L99.86328125 108 L-99.86328125 108" stroke="none" stroke-width="0" fill="#ECECFF" style=""/><path d="M-99.86328125 -108 C-37.94735866103118 -108, 23.968563927937637 -108, 99.86328125 -108 M-99.86328125 -108 C-42.64766131375931 -108, 14.567958622481385 -108, 99.86328125 -108 M99.86328125 -108 C99.86328125 -54.92783578133127, 99.86328125 -1.8556715626625362, 99.86328125 108 M99.86328125 -108 C99.86328125 -43.000156801558475, 99.86328125 21.99968639688305, 99.86328125 108 M99.86328125 108 C40.776939021053366 108, -18.30940320789327 108, -99.86328125 108 M99.86328125 108 C23.469715222724446 108, -52.92385080455111 108, -99.86328125 108 M-99.86328125 108 C-99.86328125 35.8975981779152, -99.86328125 -36.2048036441696, -99.86328125 -108 M-99.86328125 108 C-99.86328125 32.00122938505977, -99.86328125 -43.997541229880454, -99.86328125 -108" stroke="#9370DB" stroke-width="1.3" fill="none" stroke-dasharray="0 0" style=""/></g><g class="annotation-group text" transform="translate(0, -84)"/><g class="label-group text" transform="translate(-38.6640625, -84)"><g class="label" style="font-weight: bolder" transform="translate(0,-12)"><foreignObject width="77.328125" height="24"><div xmlns="http://www.w3.org/1999/xhtml" style="display: table-cell; white-space: nowrap; line-height: 1.5; max-width: 117px; text-align: center;"><span class="nodeLabel markdown-node-label" style=""><p>Institution</p></span></div></foreignObject></g></g><g class="members-group text" transform="translate(-87.86328125, -36)"><g class="label" style="" transform="translate(0,-12)"><foreignObject width="93.96875" height="24"><div xmlns="http://www.w3.org/1999/xhtml" style="display: table-cell; white-space: nowrap; line-height: 1.5; max-width: 142px; text-align: center;"><span class="nodeLabel markdown-node-label" style=""><p>+String name</p></span></div></foreignObject></g><g class="label" style="" transform="translate(0,12)"><foreignObject width="82.78125" height="24"><div xmlns="http://www.w3.org/1999/xhtml" style="display: table-cell; white-space: nowrap; line-height: 1.5; max-width: 134px; text-align: center;"><span class="nodeLabel markdown-node-label" style=""><p>+String slug</p></span></div></foreignObject></g><g class="label" style="" transform="translate(0,36)"><foreignObject width="137.0625" height="24"><div xmlns="http://www.w3.org/1999/xhtml" style="display: table-cell; white-space: nowrap; line-height: 1.5; max-width: 185px; text-align: center;"><span class="nodeLabel markdown-node-label" style=""><p>+Boolean isVerified</p></span></div></foreignObject></g><g class="label" style="" transform="translate(0,60)"><foreignObject width="97.59375" height="24"><div xmlns="http://www.w3.org/1999/xhtml" style="display: table-cell; white-space: nowrap; line-height: 1.5; max-width: 144px; text-align: center;"><span class="nodeLabel markdown-node-label" style=""><p>+String status</p></span></div></foreignObject></g></g><g class="methods-group text" transform="translate(-87.86328125, 84)"><g class="label" style="" transform="translate(0,-12)"><foreignObject width="95.671875" height="24"><div xmlns="http://www.w3.org/1999/xhtml" style="display: table-cell; white-space: nowrap; line-height: 1.5; max-width: 143px; text-align: center;"><span class="nodeLabel markdown-node-label" style=""><p>+createSlug()</p></span></div></foreignObject></g></g><g class="divider" style=""><path d="M-99.86328125 -60 C-32.6167001740819 -60, 34.6298809018362 -60, 99.86328125 -60 M-99.86328125 -60 C-37.9166049397081 -60, 24.030071370583798 -60, 99.86328125 -60" stroke="#9370DB" stroke-width="1.3" fill="none" stroke-dasharray="0 0" style=""/></g><g class="divider" style=""><path d="M-99.86328125 60 C-32.893738120049065 60, 34.07580500990187 60, 99.86328125 60 M-99.86328125 60 C-57.678035157088935 60, -15.49278906417787 60, 99.86328125 60" stroke="#9370DB" stroke-width="1.3" fill="none" stroke-dasharray="0 0" style=""/></g></g><g class="node default" id="classId-User-2" transform="translate(264.228515625, 720)"><g class="basic label-container"><path d="M-127.06640625 -132 L127.06640625 -132 L127.06640625 132 L-127.06640625 132" stroke="none" stroke-width="0" fill="#ECECFF" style=""/><path d="M-127.06640625 -132 C-57.407252472954596 -132, 12.251901304090808 -132, 127.06640625 -132 M-127.06640625 -132 C-65.70339233185615 -132, -4.340378413712315 -132, 127.06640625 -132 M127.06640625 -132 C127.06640625 -35.75483052948593, 127.06640625 60.49033894102814, 127.06640625 132 M127.06640625 -132 C127.06640625 -30.71157938949014, 127.06640625 70.57684122101972, 127.06640625 132 M127.06640625 132 C37.86264478586112 132, -51.34111667827776 132, -127.06640625 132 M127.06640625 132 C38.53889385295294 132, -49.98861854409412 132, -127.06640625 132 M-127.06640625 132 C-127.06640625 30.30434016125561, -127.06640625 -71.39131967748878, -127.06640625 -132 M-127.06640625 132 C-127.06640625 32.73486599071572, -127.06640625 -66.53026801856856, -127.06640625 -132" stroke="#9370DB" stroke-width="1.3" fill="none" stroke-dasharray="0 0" style=""/></g><g class="annotation-group text" transform="translate(0, -108)"/><g class="label-group text" transform="translate(-16.8828125, -108)"><g class="label" style="font-weight: bolder" transform="translate(0,-12)"><foreignObject width="33.765625" height="24"><div xmlns="http://www.w3.org/1999/xhtml" style="display: table-cell; white-space: nowrap; line-height: 1.5; max-width: 82px; text-align: center;"><span class="nodeLabel markdown-node-label" style=""><p>User</p></span></div></foreignObject></g></g><g class="members-group text" transform="translate(-115.06640625, -60)"><g class="label" style="" transform="translate(0,-12)"><foreignObject width="93.96875" height="24"><div xmlns="http://www.w3.org/1999/xhtml" style="display: table-cell; white-space: nowrap; line-height: 1.5; max-width: 142px; text-align: center;"><span class="nodeLabel markdown-node-label" style=""><p>+String name</p></span></div></foreignObject></g><g class="label" style="" transform="translate(0,12)"><foreignObject width="94.5" height="24"><div xmlns="http://www.w3.org/1999/xhtml" style="display: table-cell; white-space: nowrap; line-height: 1.5; max-width: 144px; text-align: center;"><span class="nodeLabel markdown-node-label" style=""><p>+String email</p></span></div></foreignObject></g><g class="label" style="" transform="translate(0,36)"><foreignObject width="83.0625" height="24"><div xmlns="http://www.w3.org/1999/xhtml" style="display: table-cell; white-space: nowrap; line-height: 1.5; max-width: 132px; text-align: center;"><span class="nodeLabel markdown-node-label" style=""><p>+String role</p></span></div></foreignObject></g><g class="label" style="" transform="translate(0,60)"><foreignObject width="106.234375" height="24"><div xmlns="http://www.w3.org/1999/xhtml" style="display: table-cell; white-space: nowrap; line-height: 1.5; max-width: 154px; text-align: center;"><span class="nodeLabel markdown-node-label" style=""><p>+String college</p></span></div></foreignObject></g><g class="label" style="" transform="translate(0,84)"><foreignObject width="111.34375" height="24"><div xmlns="http://www.w3.org/1999/xhtml" style="display: table-cell; white-space: nowrap; line-height: 1.5; max-width: 160px; text-align: center;"><span class="nodeLabel markdown-node-label" style=""><p>+ObjectId orgId</p></span></div></foreignObject></g><g class="label" style="" transform="translate(0,108)"><foreignObject width="122.46875" height="24"><div xmlns="http://www.w3.org/1999/xhtml" style="display: table-cell; white-space: nowrap; line-height: 1.5; max-width: 168px; text-align: center;"><span class="nodeLabel markdown-node-label" style=""><p>+String studentId</p></span></div></foreignObject></g></g><g class="methods-group text" transform="translate(-115.06640625, 108)"><g class="label" style="" transform="translate(0,-12)"><foreignObject width="213.25" height="24"><div xmlns="http://www.w3.org/1999/xhtml" style="display: table-cell; white-space: nowrap; line-height: 1.5; max-width: 252px; text-align: center;"><span class="nodeLabel markdown-node-label" style=""><p>+comparePassword(password)</p></span></div></foreignObject></g></g><g class="divider" style=""><path d="M-127.06640625 -84 C-41.161531838595124 -84, 44.74334257280975 -84, 127.06640625 -84 M-127.06640625 -84 C-72.63707415583633 -84, -18.207742061672647 -84, 127.06640625 -84" stroke="#9370DB" stroke-width="1.3" fill="none" stroke-dasharray="0 0" style=""/></g><g class="divider" style=""><path d="M-127.06640625 84 C-36.98788855884355 84, 53.0906291323129 84, 127.06640625 84 M-127.06640625 84 C-50.66278686081684 84, 25.740832528366326 84, 127.06640625 84" stroke="#9370DB" stroke-width="1.3" fill="none" stroke-dasharray="0 0" style=""/></g></g><g class="node default" id="classId-Complaint-3" transform="translate(461.759765625, 1384)"><g class="basic label-container"><path d="M-182.1953125 -144 L182.1953125 -144 L182.1953125 144 L-182.1953125 144" stroke="none" stroke-width="0" fill="#ECECFF" style=""/><path d="M-182.1953125 -144 C-84.59516199405094 -144, 13.00498851189812 -144, 182.1953125 -144 M-182.1953125 -144 C-74.49722092080256 -144, 33.20087065839488 -144, 182.1953125 -144 M182.1953125 -144 C182.1953125 -80.87480819042985, 182.1953125 -17.749616380859692, 182.1953125 144 M182.1953125 -144 C182.1953125 -29.137844547214286, 182.1953125 85.72431090557143, 182.1953125 144 M182.1953125 144 C104.89101028105182 144, 27.58670806210364 144, -182.1953125 144 M182.1953125 144 C109.3067634419121 144, 36.41821438382419 144, -182.1953125 144 M-182.1953125 144 C-182.1953125 84.02506947843676, -182.1953125 24.050138956873525, -182.1953125 -144 M-182.1953125 144 C-182.1953125 34.834104609923855, -182.1953125 -74.33179078015229, -182.1953125 -144" stroke="#9370DB" stroke-width="1.3" fill="none" stroke-dasharray="0 0" style=""/></g><g class="annotation-group text" transform="translate(0, -120)"/><g class="label-group text" transform="translate(-37.859375, -120)"><g class="label" style="font-weight: bolder" transform="translate(0,-12)"><foreignObject width="75.71875" height="24"><div xmlns="http://www.w3.org/1999/xhtml" style="display: table-cell; white-space: nowrap; line-height: 1.5; max-width: 118px; text-align: center;"><span class="nodeLabel markdown-node-label" style=""><p>Complaint</p></span></div></foreignObject></g></g><g class="members-group text" transform="translate(-170.1953125, -72)"><g class="label" style="" transform="translate(0,-12)"><foreignObject width="126.46875" height="24"><div xmlns="http://www.w3.org/1999/xhtml" style="display: table-cell; white-space: nowrap; line-height: 1.5; max-width: 174px; text-align: center;"><span class="nodeLabel markdown-node-label" style=""><p>+String trackingId</p></span></div></foreignObject></g><g class="label" style="" transform="translate(0,12)"><foreignObject width="85.5" height="24"><div xmlns="http://www.w3.org/1999/xhtml" style="display: table-cell; white-space: nowrap; line-height: 1.5; max-width: 132px; text-align: center;"><span class="nodeLabel markdown-node-label" style=""><p>+String title</p></span></div></foreignObject></g><g class="label" style="" transform="translate(0,36)"><foreignObject width="134.78125" height="24"><div xmlns="http://www.w3.org/1999/xhtml" style="display: table-cell; white-space: nowrap; line-height: 1.5; max-width: 180px; text-align: center;"><span class="nodeLabel markdown-node-label" style=""><p>+String description</p></span></div></foreignObject></g><g class="label" style="" transform="translate(0,60)"><foreignObject width="116.9375" height="24"><div xmlns="http://www.w3.org/1999/xhtml" style="display: table-cell; white-space: nowrap; line-height: 1.5; max-width: 164px; text-align: center;"><span class="nodeLabel markdown-node-label" style=""><p>+String category</p></span></div></foreignObject></g><g class="label" style="" transform="translate(0,84)"><foreignObject width="97.59375" height="24"><div xmlns="http://www.w3.org/1999/xhtml" style="display: table-cell; white-space: nowrap; line-height: 1.5; max-width: 144px; text-align: center;"><span class="nodeLabel markdown-node-label" style=""><p>+String status</p></span></div></foreignObject></g><g class="label" style="" transform="translate(0,108)"><foreignObject width="190.84375" height="24"><div xmlns="http://www.w3.org/1999/xhtml" style="display: table-cell; white-space: nowrap; line-height: 1.5; max-width: 231px; text-align: center;"><span class="nodeLabel markdown-node-label" style=""><p>+Boolean identityRevealed</p></span></div></foreignObject></g></g><g class="methods-group text" transform="translate(-170.1953125, 96)"><g class="label" style="" transform="translate(0,-12)"><foreignObject width="302.53125" height="24"><div xmlns="http://www.w3.org/1999/xhtml" style="display: table-cell; white-space: nowrap; line-height: 1.5; max-width: 322px; text-align: center;"><span class="nodeLabel markdown-node-label" style=""><p>+updateStatus(status, adminId, comment)</p></span></div></foreignObject></g><g class="label" style="" transform="translate(0,12)"><foreignObject width="225.546875" height="24"><div xmlns="http://www.w3.org/1999/xhtml" style="display: table-cell; white-space: nowrap; line-height: 1.5; max-width: 263px; text-align: center;"><span class="nodeLabel markdown-node-label" style=""><p>+addAdminNote(note, adminId)</p></span></div></foreignObject></g></g><g class="divider" style=""><path d="M-182.1953125 -96 C-55.13595038944139 -96, 71.92341172111722 -96, 182.1953125 -96 M-182.1953125 -96 C-100.39582933805588 -96, -18.59634617611175 -96, 182.1953125 -96" stroke="#9370DB" stroke-width="1.3" fill="none" stroke-dasharray="0 0" style=""/></g><g class="divider" style=""><path d="M-182.1953125 72 C-57.92728030433085 72, 66.3407518913383 72, 182.1953125 72 M-182.1953125 72 C-86.46284142968484 72, 9.269629640630313 72, 182.1953125 72" stroke="#9370DB" stroke-width="1.3" fill="none" stroke-dasharray="0 0" style=""/></g></g><g class="node default" id="classId-ComplaintTracking-4" transform="translate(314.916015625, 1046)"><g class="basic label-container"><path d="M-227.6484375 -120 L227.6484375 -120 L227.6484375 120 L-227.6484375 120" stroke="none" stroke-width="0" fill="#ECECFF" style=""/><path d="M-227.6484375 -120 C-56.80612000329225 -120, 114.0361974934155 -120, 227.6484375 -120 M-227.6484375 -120 C-115.4916203372271 -120, -3.3348031744542084 -120, 227.6484375 -120 M227.6484375 -120 C227.6484375 -28.775843130499354, 227.6484375 62.44831373900129, 227.6484375 120 M227.6484375 -120 C227.6484375 -49.36110589340801, 227.6484375 21.27778821318398, 227.6484375 120 M227.6484375 120 C66.8587427747294 120, -93.93095195054121 120, -227.6484375 120 M227.6484375 120 C80.46154519810398 120, -66.72534710379205 120, -227.6484375 120 M-227.6484375 120 C-227.6484375 65.45523902815181, -227.6484375 10.910478056303617, -227.6484375 -120 M-227.6484375 120 C-227.6484375 50.9098345132644, -227.6484375 -18.1803309734712, -227.6484375 -120" stroke="#9370DB" stroke-width="1.3" fill="none" stroke-dasharray="0 0" style=""/></g><g class="annotation-group text" transform="translate(0, -96)"/><g class="label-group text" transform="translate(-68.96875, -96)"><g class="label" style="font-weight: bolder" transform="translate(0,-12)"><foreignObject width="137.9375" height="24"><div xmlns="http://www.w3.org/1999/xhtml" style="display: table-cell; white-space: nowrap; line-height: 1.5; max-width: 175px; text-align: center;"><span class="nodeLabel markdown-node-label" style=""><p>ComplaintTracking</p></span></div></foreignObject></g></g><g class="members-group text" transform="translate(-215.6484375, -48)"><g class="label" style="" transform="translate(0,-12)"><foreignObject width="126.46875" height="24"><div xmlns="http://www.w3.org/1999/xhtml" style="display: table-cell; white-space: nowrap; line-height: 1.5; max-width: 174px; text-align: center;"><span class="nodeLabel markdown-node-label" style=""><p>+String trackingId</p></span></div></foreignObject></g><g class="label" style="" transform="translate(0,12)"><foreignObject width="172.375" height="24"><div xmlns="http://www.w3.org/1999/xhtml" style="display: table-cell; white-space: nowrap; line-height: 1.5; max-width: 215px; text-align: center;"><span class="nodeLabel markdown-node-label" style=""><p>+String encryptedUserId</p></span></div></foreignObject></g><g class="label" style="" transform="translate(0,36)"><foreignObject width="122.03125" height="24"><div xmlns="http://www.w3.org/1999/xhtml" style="display: table-cell; white-space: nowrap; line-height: 1.5; max-width: 172px; text-align: center;"><span class="nodeLabel markdown-node-label" style=""><p>+Array accessLog</p></span></div></foreignObject></g></g><g class="methods-group text" transform="translate(-215.6484375, 48)"><g class="label" style="" transform="translate(0,-12)"><foreignObject width="251.859375" height="24"><div xmlns="http://www.w3.org/1999/xhtml" style="display: table-cell; white-space: nowrap; line-height: 1.5; max-width: 284px; text-align: center;"><span class="nodeLabel markdown-node-label" style=""><p>+createTracking(trackingId, userId)</p></span></div></foreignObject></g><g class="label" style="" transform="translate(0,12)"><foreignObject width="262.25" height="24"><div xmlns="http://www.w3.org/1999/xhtml" style="display: table-cell; white-space: nowrap; line-height: 1.5; max-width: 297px; text-align: center;"><span class="nodeLabel markdown-node-label" style=""><p>+verifyOwnership(trackingId, userId)</p></span></div></foreignObject></g><g class="label" style="" transform="translate(0,36)"><foreignObject width="362.328125" height="24"><div xmlns="http://www.w3.org/1999/xhtml" style="display: table-cell; white-space: nowrap; line-height: 1.5; max-width: 391px; text-align: center;"><span class="nodeLabel markdown-node-label" style=""><p>+getUserIdByTracking(trackingId, adminId, reason)</p></span></div></foreignObject></g></g><g class="divider" style=""><path d="M-227.6484375 -72 C-106.88983023549783 -72, 13.868777029004349 -72, 227.6484375 -72 M-227.6484375 -72 C-82.76929812505358 -72, 62.10984124989284 -72, 227.6484375 -72" stroke="#9370DB" stroke-width="1.3" fill="none" stroke-dasharray="0 0" style=""/></g><g class="divider" style=""><path d="M-227.6484375 24 C-122.98772117483885 24, -18.327004849677706 24, 227.6484375 24 M-227.6484375 24 C-108.39847074337177 24, 10.851496013256451 24, 227.6484375 24" stroke="#9370DB" stroke-width="1.3" fill="none" stroke-dasharray="0 0" style=""/></g></g><g class="node default" id="classId-ChatMessage-5" transform="translate(461.759765625, 1698)"><g class="basic label-container"><path d="M-102.35546875 -96 L102.35546875 -96 L102.35546875 96 L-102.35546875 96" stroke="none" stroke-width="0" fill="#ECECFF" style=""/><path d="M-102.35546875 -96 C-37.41309368757881 -96, 27.529281374842384 -96, 102.35546875 -96 M-102.35546875 -96 C-30.68357308231667 -96, 40.98832258536666 -96, 102.35546875 -96 M102.35546875 -96 C102.35546875 -44.752953727350956, 102.35546875 6.494092545298088, 102.35546875 96 M102.35546875 -96 C102.35546875 -35.888953113734374, 102.35546875 24.222093772531252, 102.35546875 96 M102.35546875 96 C24.24743029294831 96, -53.86060816410338 96, -102.35546875 96 M102.35546875 96 C29.26818370209331 96, -43.81910134581338 96, -102.35546875 96 M-102.35546875 96 C-102.35546875 22.122302842710297, -102.35546875 -51.755394314579405, -102.35546875 -96 M-102.35546875 96 C-102.35546875 52.37789509016341, -102.35546875 8.755790180326827, -102.35546875 -96" stroke="#9370DB" stroke-width="1.3" fill="none" stroke-dasharray="0 0" style=""/></g><g class="annotation-group text" transform="translate(0, -72)"/><g class="label-group text" transform="translate(-47.3984375, -72)"><g class="label" style="font-weight: bolder" transform="translate(0,-12)"><foreignObject width="94.796875" height="24"><div xmlns="http://www.w3.org/1999/xhtml" style="display: table-cell; white-space: nowrap; line-height: 1.5; max-width: 136px; text-align: center;"><span class="nodeLabel markdown-node-label" style=""><p>ChatMessage</p></span></div></foreignObject></g></g><g class="members-group text" transform="translate(-90.35546875, -24)"><g class="label" style="" transform="translate(0,-12)"><foreignObject width="126.46875" height="24"><div xmlns="http://www.w3.org/1999/xhtml" style="display: table-cell; white-space: nowrap; line-height: 1.5; max-width: 174px; text-align: center;"><span class="nodeLabel markdown-node-label" style=""><p>+String trackingId</p></span></div></foreignObject></g><g class="label" style="" transform="translate(0,12)"><foreignObject width="133.3125" height="24"><div xmlns="http://www.w3.org/1999/xhtml" style="display: table-cell; white-space: nowrap; line-height: 1.5; max-width: 180px; text-align: center;"><span class="nodeLabel markdown-node-label" style=""><p>+String senderRole</p></span></div></foreignObject></g><g class="label" style="" transform="translate(0,36)"><foreignObject width="114.9375" height="24"><div xmlns="http://www.w3.org/1999/xhtml" style="display: table-cell; white-space: nowrap; line-height: 1.5; max-width: 162px; text-align: center;"><span class="nodeLabel markdown-node-label" style=""><p>+String message</p></span></div></foreignObject></g><g class="label" style="" transform="translate(0,60)"><foreignObject width="117.546875" height="24"><div xmlns="http://www.w3.org/1999/xhtml" style="display: table-cell; white-space: nowrap; line-height: 1.5; max-width: 161px; text-align: center;"><span class="nodeLabel markdown-node-label" style=""><p>+Date createdAt</p></span></div></foreignObject></g></g><g class="methods-group text" transform="translate(-90.35546875, 96)"/><g class="divider" style=""><path d="M-102.35546875 -48 C-43.3321156696327 -48, 15.691237410734601 -48, 102.35546875 -48 M-102.35546875 -48 C-32.082631967469155 -48, 38.19020481506169 -48, 102.35546875 -48" stroke="#9370DB" stroke-width="1.3" fill="none" stroke-dasharray="0 0" style=""/></g><g class="divider" style=""><path d="M-102.35546875 72 C-22.139520595927436 72, 58.07642755814513 72, 102.35546875 72 M-102.35546875 72 C-47.55879115453367 72, 7.237886440932655 72, 102.35546875 72" stroke="#9370DB" stroke-width="1.3" fill="none" stroke-dasharray="0 0" style=""/></g></g><g class="node default" id="classId-AuthController-6" transform="translate(391.94140625, 406)"><g class="basic label-container"><path d="M-105.5625 -87 L105.5625 -87 L105.5625 87 L-105.5625 87" stroke="none" stroke-width="0" fill="#ECECFF" style=""/><path d="M-105.5625 -87 C-52.84231193284269 -87, -0.12212386568538136 -87, 105.5625 -87 M-105.5625 -87 C-30.013914441718853 -87, 45.53467111656229 -87, 105.5625 -87 M105.5625 -87 C105.5625 -47.114302312664485, 105.5625 -7.22860462532897, 105.5625 87 M105.5625 -87 C105.5625 -42.186452067266444, 105.5625 2.627095865467112, 105.5625 87 M105.5625 87 C34.25837745738552 87, -37.04574508522896 87, -105.5625 87 M105.5625 87 C57.62360442893596 87, 9.684708857871925 87, -105.5625 87 M-105.5625 87 C-105.5625 22.46730483216551, -105.5625 -42.06539033566898, -105.5625 -87 M-105.5625 87 C-105.5625 51.63718065947509, -105.5625 16.274361318950184, -105.5625 -87" stroke="#9370DB" stroke-width="1.3" fill="none" stroke-dasharray="0 0" style=""/></g><g class="annotation-group text" transform="translate(0, -63)"/><g class="label-group text" transform="translate(-55.703125, -63)"><g class="label" style="font-weight: bolder" transform="translate(0,-12)"><foreignObject width="111.40625" height="24"><div xmlns="http://www.w3.org/1999/xhtml" style="display: table-cell; white-space: nowrap; line-height: 1.5; max-width: 149px; text-align: center;"><span class="nodeLabel markdown-node-label" style=""><p>AuthController</p></span></div></foreignObject></g></g><g class="members-group text" transform="translate(-93.5625, -15)"/><g class="methods-group text" transform="translate(-93.5625, 15)"><g class="label" style="" transform="translate(0,-12)"><foreignObject width="131.421875" height="24"><div xmlns="http://www.w3.org/1999/xhtml" style="display: table-cell; white-space: nowrap; line-height: 1.5; max-width: 170px; text-align: center;"><span class="nodeLabel markdown-node-label" style=""><p>+register(req, res)</p></span></div></foreignObject></g><g class="label" style="" transform="translate(0,12)"><foreignObject width="110.765625" height="24"><div xmlns="http://www.w3.org/1999/xhtml" style="display: table-cell; white-space: nowrap; line-height: 1.5; max-width: 155px; text-align: center;"><span class="nodeLabel markdown-node-label" style=""><p>+login(req, res)</p></span></div></foreignObject></g><g class="label" style="" transform="translate(0,36)"><foreignObject width="121.125" height="24"><div xmlns="http://www.w3.org/1999/xhtml" style="display: table-cell; white-space: nowrap; line-height: 1.5; max-width: 163px; text-align: center;"><span class="nodeLabel markdown-node-label" style=""><p>+logout(req, res)</p></span></div></foreignObject></g></g><g class="divider" style=""><path d="M-105.5625 -39 C-44.155072235080894 -39, 17.252355529838212 -39, 105.5625 -39 M-105.5625 -39 C-36.47477192244533 -39, 32.612956155109345 -39, 105.5625 -39" stroke="#9370DB" stroke-width="1.3" fill="none" stroke-dasharray="0 0" style=""/></g><g class="divider" style=""><path d="M-105.5625 -15 C-34.74580926511631 -15, 36.070881469767386 -15, 105.5625 -15 M-105.5625 -15 C-24.184111764234586 -15, 57.19427647153083 -15, 105.5625 -15" stroke="#9370DB" stroke-width="1.3" fill="none" stroke-dasharray="0 0" style=""/></g></g><g class="node default" id="classId-ComplaintController-7" transform="translate(637.453125, 720)"><g class="basic label-container"><path d="M-174.3203125 -111 L174.3203125 -111 L174.3203125 111 L-174.3203125 111" stroke="none" stroke-width="0" fill="#ECECFF" style=""/><path d="M-174.3203125 -111 C-102.37375316375471 -111, -30.427193827509427 -111, 174.3203125 -111 M-174.3203125 -111 C-35.107156184731 -111, 104.106000130538 -111, 174.3203125 -111 M174.3203125 -111 C174.3203125 -55.350782706193165, 174.3203125 0.29843458761367003, 174.3203125 111 M174.3203125 -111 C174.3203125 -43.228981465709325, 174.3203125 24.54203706858135, 174.3203125 111 M174.3203125 111 C83.04881852676688 111, -8.22267544646624 111, -174.3203125 111 M174.3203125 111 C71.0027459215546 111, -32.31482065689079 111, -174.3203125 111 M-174.3203125 111 C-174.3203125 31.521410907011557, -174.3203125 -47.957178185976886, -174.3203125 -111 M-174.3203125 111 C-174.3203125 64.75559942975869, -174.3203125 18.511198859517364, -174.3203125 -111" stroke="#9370DB" stroke-width="1.3" fill="none" stroke-dasharray="0 0" style=""/></g><g class="annotation-group text" transform="translate(0, -87)"/><g class="label-group text" transform="translate(-75.859375, -87)"><g class="label" style="font-weight: bolder" transform="translate(0,-12)"><foreignObject width="151.71875" height="24"><div xmlns="http://www.w3.org/1999/xhtml" style="display: table-cell; white-space: nowrap; line-height: 1.5; max-width: 184px; text-align: center;"><span class="nodeLabel markdown-node-label" style=""><p>ComplaintController</p></span></div></foreignObject></g></g><g class="members-group text" transform="translate(-162.3203125, -39)"/><g class="methods-group text" transform="translate(-162.3203125, -9)"><g class="label" style="" transform="translate(0,-12)"><foreignObject width="173.171875" height="24"><div xmlns="http://www.w3.org/1999/xhtml" style="display: table-cell; white-space: nowrap; line-height: 1.5; max-width: 211px; text-align: center;"><span class="nodeLabel markdown-node-label" style=""><p>+fileComplaint(req, res)</p></span></div></foreignObject></g><g class="label" style="" transform="translate(0,12)"><foreignObject width="248.78125" height="24"><div xmlns="http://www.w3.org/1999/xhtml" style="display: table-cell; white-space: nowrap; line-height: 1.5; max-width: 285px; text-align: center;"><span class="nodeLabel markdown-node-label" style=""><p>+getComplaintByTracking(req, res)</p></span></div></foreignObject></g><g class="label" style="" transform="translate(0,36)"><foreignObject width="197.703125" height="24"><div xmlns="http://www.w3.org/1999/xhtml" style="display: table-cell; white-space: nowrap; line-height: 1.5; max-width: 236px; text-align: center;"><span class="nodeLabel markdown-node-label" style=""><p>+getAllComplaints(req, res)</p></span></div></foreignObject></g><g class="label" style="" transform="translate(0,60)"><foreignObject width="243.296875" height="24"><div xmlns="http://www.w3.org/1999/xhtml" style="display: table-cell; white-space: nowrap; line-height: 1.5; max-width: 272px; text-align: center;"><span class="nodeLabel markdown-node-label" style=""><p>+updateComplaintStatus(req, res)</p></span></div></foreignObject></g><g class="label" style="" transform="translate(0,84)"><foreignObject width="176.734375" height="24"><div xmlns="http://www.w3.org/1999/xhtml" style="display: table-cell; white-space: nowrap; line-height: 1.5; max-width: 211px; text-align: center;"><span class="nodeLabel markdown-node-label" style=""><p>+revealIdentity(req, res)</p></span></div></foreignObject></g></g><g class="divider" style=""><path d="M-174.3203125 -63 C-87.5793779639616 -63, -0.8384434279232096 -63, 174.3203125 -63 M-174.3203125 -63 C-78.2281518158684 -63, 17.8640088682632 -63, 174.3203125 -63" stroke="#9370DB" stroke-width="1.3" fill="none" stroke-dasharray="0 0" style=""/></g><g class="divider" style=""><path d="M-174.3203125 -39 C-39.40051785024821 -39, 95.51927679950359 -39, 174.3203125 -39 M-174.3203125 -39 C-38.18472933825643 -39, 97.95085382348714 -39, 174.3203125 -39" stroke="#9370DB" stroke-width="1.3" fill="none" stroke-dasharray="0 0" style=""/></g></g></g></g></g></svg>