<svg id="my-svg" width="100%" xmlns="http://www.w3.org/2000/svg" xmlns:xlink="http://www.w3.org/1999/xlink" class="classDiagram" style="max-width: 466.262px; background-color: white;" viewBox="0 0 466.26171875 1368" role="graphics-document document" aria-roledescription="class"><style>#my-svg{font-family:"trebuchet ms",verdana,arial,sans-serif;font-size:16px;fill:#333;}@keyframes edge-animation-frame{from{stroke-dashoffset:0;}}@keyframes dash{to{stroke-dashoffset:0;}}#my-svg .edge-animation-slow{stroke-dasharray:9,5!important;stroke-dashoffset:900;animation:dash 50s linear infinite;stroke-linecap:round;}#my-svg .edge-animation-fast{stroke-dasharray:9,5!important;stroke-dashoffset:900;animation:dash 20s linear infinite;stroke-linecap:round;}#my-svg .error-icon{fill:#552222;}#my-svg .error-text{fill:#552222;stroke:#552222;}#my-svg .edge-thickness-normal{stroke-width:1px;}#my-svg .edge-thickness-thick{stroke-width:3.5px;}#my-svg .edge-pattern-solid{stroke-dasharray:0;}#my-svg .edge-thickness-invisible{stroke-width:0;fill:none;}#my-svg .edge-pattern-dashed{stroke-dasharray:3;}#my-svg .edge-pattern-dotted{stroke-dasharray:2;}#my-svg .marker{fill:#333333;stroke:#333333;}#my-svg .marker.cross{stroke:#333333;}#my-svg svg{font-family:"trebuchet ms",verdana,arial,sans-serif;font-size:16px;}#my-svg p{margin:0;}#my-svg g.classGroup text{fill:#9370DB;stroke:none;font-family:"trebuchet ms",verdana,arial,sans-serif;font-size:10px;}#my-svg g.classGroup text .title{font-weight:bolder;}#my-svg .cluster-label text{fill:#333;}#my-svg .cluster-label span{color:#333;}#my-svg .cluster-label span p{background-color:transparent;}#my-svg .cluster rect{fill:#ffffde;stroke:#aaaa33;stroke-width:1px;}#my-svg .cluster text{fill:#333;}#my-svg .cluster span{color:#333;}#my-svg .nodeLabel,#my-svg .edgeLabel{color:#131300;}#my-svg .edgeLabel .label rect{fill:#ECECFF;}#my-svg .label text{fill:#131300;}#my-svg .labelBkg{background:#ECECFF;}#my-svg .edgeLabel .label span{background:#ECECFF;}#my-svg .classTitle{font-weight:bolder;}#my-svg .node rect,#my-svg .node circle,#my-svg .node ellipse,#my-svg .node polygon,#my-svg .node path{fill:#ECECFF;stroke:#9370DB;stroke-width:1px;}#my-svg .divider{stroke:#9370DB;stroke-width:1;}#my-svg g.clickable{cursor:pointer;}#my-svg g.classGroup rect{fill:#ECECFF;stroke:#9370DB;}#my-svg g.classGroup line{stroke:#9370DB;stroke-width:1;}#my-svg .classLabel .box{stroke:none;stroke-width:0;fill:#ECECFF;opacity:0.5;}#my-svg .classLabel .label{fill:#9370DB;font-size:10px;}#my-svg .relation{stroke:#333333;stroke-width:1;fill:none;}#my-svg .dashed-line{stroke-dasharray:3;}#my-svg .dotted-line{stroke-dasharray:1 2;}#my-svg #compositionStart,#my-svg .composition{fill:#333333!important;stroke:#333333!important;stroke-width:1;}#my-svg #compositionEnd,#my-svg .composition{fill:#333333!important;stroke:#333333!important;stroke-width:1;}#my-svg #dependencyStart,#my-svg .dependency{fill:#333333!important;stroke:#333333!important;stroke-width:1;}#my-svg #dependencyStart,#my-svg .dependency{fill:#333333!important;stroke:#333333!important;stroke-width:1;}#my-svg #extensionStart,#my-svg .extension{fill:transparent!important;stroke:#333333!important;stroke-width:1;}#my-svg #extensionEnd,#my-svg .extension{fill:transparent!important;stroke:#333333!important;stroke-width:1;}#my-svg #aggregationStart,#my-svg .aggregation{fill:transparent!important;stroke:#333333!important;stroke-width:1;}#my-svg #aggregationEnd,#my-svg .aggregation{fill:transparent!important;stroke:#333333!important;stroke-width:1;}#my-svg #lollipopStart,#my-svg .lollipop{fill:#ECECFF!important;stroke:#333333!important;stroke-width:1;}#my-svg #lollipopEnd,#my-svg .lollipop{fill:#ECECFF!important;stroke:#333333!important;stroke-width:1;}#my-svg .edgeTerminals{font-size:11px;line-height:initial;}#my-svg .classTitleText{text-anchor:middle;font-size:18px;fill:#333;}#my-svg .label-icon{display:inline-block;height:1em;overflow:visible;vertical-align:-0.125em;}#my-svg .node .label-icon path{fill:currentColor;stroke:revert;stroke-width:revert;}#my-svg :root{--mermaid-font-family:"trebuchet ms",verdana,arial,sans-serif;}</style><g><defs><marker id="my-svg_class-aggregationStart" class="marker aggregation class" refX="18" refY="7" markerWidth="190" markerHeight="240" orient="auto"><path d="M 18,7 L9,13 L1,7 L9,1 Z"/></marker></defs><defs><marker id="my-svg_class-aggregationEnd" class="marker aggregation class" refX="1" refY="7" markerWidth="20" markerHeight="28" orient="auto"><path d="M 18,7 L9,13 L1,7 L9,1 Z"/></marker></defs><defs><marker id="my-svg_class-extensionStart" class="marker extension class" refX="18" refY="7" markerWidth="190" markerHeight="240" orient="auto"><path d="M 1,7 L18,13 V 1 Z"/></marker></defs><defs><marker id="my-svg_class-extensionEnd" class="marker extension class" refX="1" refY="7" markerWidth="20" markerHeight="28" orient="auto"><path d="M 1,1 V 13 L18,7 Z"/></marker></defs><defs><marker id="my-svg_class-compositionStart" class="marker composition class" refX="18" refY="7" markerWidth="190" markerHeight="240" orient="auto"><path d="M 18,7 L9,13 L1,7 L9,1 Z"/></marker></defs><defs><marker id="my-svg_class-compositionEnd" class="marker composition class" refX="1" refY="7" markerWidth="20" markerHeight="28" orient="auto"><path d="M 18,7 L9,13 L1,7 L9,1 Z"/></marker></defs><defs><marker id="my-svg_class-dependencyStart" class="marker dependency class" refX="6" refY="7" markerWidth="190" markerHeight="240" orient="auto"><path d="M 5,7 L9,13 L1,7 L9,1 Z"/></marker></defs><defs><marker id="my-svg_class-dependencyEnd" class="marker dependency class" refX="13" refY="7" markerWidth="20" markerHeight="28" orient="auto"><path d="M 18,7 L9,13 L14,7 L9,1 Z"/></marker></defs><defs><marker id="my-svg_class-lollipopStart" class="marker lollipop class" refX="13" refY="7" markerWidth="190" markerHeight="240" orient="auto"><circle fill="transparent" cx="7" cy="7" r="6"/></marker></defs><defs><marker id="my-svg_class-lollipopEnd" class="marker lollipop class" refX="1" refY="7" markerWidth="190" markerHeight="240" orient="auto"><circle fill="transparent" cx="7" cy="7" r="6"/></marker></defs><g class="root"><g class="clusters"/><g class="edgePaths"><path d="M219.463,176L219.463,182.167C219.463,188.333,219.463,200.667,219.463,213C219.463,225.333,219.463,237.667,219.463,243.833L219.463,250" id="id_SuperAdmin_Institution_1" class="edge-thickness-normal edge-pattern-solid relation" style=";;;" data-edge="true" data-et="edge" data-id="id_SuperAdmin_Institution_1" data-points="W3sieCI6MjE5LjQ2Mjg5MDYyNSwieSI6MTc2fSx7IngiOjIxOS40NjI4OTA2MjUsInkiOjIxM30seyJ4IjoyMTkuNDYyODkwNjI1LCJ5IjoyNTB9XQ=="/><path d="M127.798,490L123.088,496.167C118.377,502.333,108.956,514.667,104.246,527C99.535,539.333,99.535,551.667,99.535,557.833L99.535,564" id="id_Institution_User_2" class="edge-thickness-normal edge-pattern-solid relation" style=";;;" data-edge="true" data-et="edge" data-id="id_Institution_User_2" data-points="W3sieCI6MTI3Ljc5ODM4MDI3NDY4MTUzLCJ5Ijo0OTB9LHsieCI6OTkuNTM1MTU2MjUsInkiOjUyN30seyJ4Ijo5OS41MzUxNTYyNSwieSI6NTY0fV0="/><path d="M311.127,490L315.838,496.167C320.548,502.333,329.97,514.667,334.68,527C339.391,539.333,339.391,551.667,339.391,557.833L339.391,564" id="id_Institution_Complaint_3" class="edge-thickness-normal edge-pattern-solid relation" style=";;;" data-edge="true" data-et="edge" data-id="id_Institution_Complaint_3" data-points="W3sieCI6MzExLjEyNzQwMDk3NTMxODQ0LCJ5Ijo0OTB9LHsieCI6MzM5LjM5MDYyNSwieSI6NTI3fSx7IngiOjMzOS4zOTA2MjUsInkiOjU2NH1d"/><path d="M339.391,804L339.391,810.167C339.391,816.333,339.391,828.667,339.391,841C339.391,853.333,339.391,865.667,339.391,871.833L339.391,878" id="id_Complaint_ChatSession_4" class="edge-thickness-normal edge-pattern-solid relation" style=";;;" data-edge="true" data-et="edge" data-id="id_Complaint_ChatSession_4" data-points="W3sieCI6MzM5LjM5MDYyNSwieSI6ODA0fSx7IngiOjMzOS4zOTA2MjUsInkiOjg0MX0seyJ4IjozMzkuMzkwNjI1LCJ5Ijo4Nzh9XQ=="/><path d="M339.391,1070L339.391,1076.167C339.391,1082.333,339.391,1094.667,339.391,1107C339.391,1119.333,339.391,1131.667,339.391,1137.833L339.391,1144" id="id_ChatSession_ChatMessage_5" class="edge-thickness-normal edge-pattern-solid relation" style=";;;" data-edge="true" data-et="edge" data-id="id_ChatSession_ChatMessage_5" data-points="W3sieCI6MzM5LjM5MDYyNSwieSI6MTA3MH0seyJ4IjozMzkuMzkwNjI1LCJ5IjoxMTA3fSx7IngiOjMzOS4zOTA2MjUsInkiOjExNDR9XQ=="/></g><g class="edgeLabels"><g class="edgeLabel" transform="translate(219.462890625, 213)"><g class="label" data-id="id_SuperAdmin_Institution_1" transform="translate(-38.6484375, -12)"><foreignObject width="77.296875" height="24"><div xmlns="http://www.w3.org/1999/xhtml" class="labelBkg" style="display: table-cell; white-space: nowrap; line-height: 1.5; max-width: 200px; text-align: center;"><span class="edgeLabel"><p>approves &gt;</p></span></div></foreignObject></g></g><g class="edgeLabel" transform="translate(99.53515625, 527)"><g class="label" data-id="id_Institution_User_2" transform="translate(-18.421875, -12)"><foreignObject width="36.84375" height="24"><div xmlns="http://www.w3.org/1999/xhtml" class="labelBkg" style="display: table-cell; white-space: nowrap; line-height: 1.5; max-width: 200px; text-align: center;"><span class="edgeLabel"><p>has &gt;</p></span></div></foreignObject></g></g><g class="edgeLabel" transform="translate(339.390625, 527)"><g class="label" data-id="id_Institution_Complaint_3" transform="translate(-24.4609375, -12)"><foreignObject width="48.921875" height="24"><div xmlns="http://www.w3.org/1999/xhtml" class="labelBkg" style="display: table-cell; white-space: nowrap; line-height: 1.5; max-width: 200px; text-align: center;"><span class="edgeLabel"><p>owns &gt;</p></span></div></foreignObject></g></g><g class="edgeLabel" transform="translate(339.390625, 841)"><g class="label" data-id="id_Complaint_ChatSession_4" transform="translate(-18.421875, -12)"><foreignObject width="36.84375" height="24"><div xmlns="http://www.w3.org/1999/xhtml" class="labelBkg" style="display: table-cell; white-space: nowrap; line-height: 1.5; max-width: 200px; text-align: center;"><span class="edgeLabel"><p>has &gt;</p></span></div></foreignObject></g></g><g class="edgeLabel" transform="translate(339.390625, 1107)"><g class="label" data-id="id_ChatSession_ChatMessage_5" transform="translate(-36.5, -12)"><foreignObject width="73" height="24"><div xmlns="http://www.w3.org/1999/xhtml" class="labelBkg" style="display: table-cell; white-space: nowrap; line-height: 1.5; max-width: 200px; text-align: center;"><span class="edgeLabel"><p>contains &gt;</p></span></div></foreignObject></g></g><g class="edgeTerminals" transform="translate(204.4628903125, 193.49999973214284)"><g class="inner" transform="translate(-2.890625, -8.25)"><foreignObject width="5.78125" height="16.5" style="width: 9px; height: 12px;"><div xmlns="http://www.w3.org/1999/xhtml" style="display: table-cell; white-space: nowrap; line-height: 1.5;"><span class="edgeLabel"><p>1</p></span></div></foreignObject></g></g><g class="edgeTerminals" transform="translate(105.25516185673843, 494.8013947671058)"><g class="inner" transform="translate(-2.890625, -8.25)"><foreignObject width="5.78125" height="16.5" style="width: 9px; height: 12px;"><div xmlns="http://www.w3.org/1999/xhtml" style="display: table-cell; white-space: nowrap; line-height: 1.5;"><span class="edgeLabel"><p>1</p></span></div></foreignObject></g></g><g class="edgeTerminals" transform="translate(309.83028194863135, 513.0123348945837)"><g class="inner" transform="translate(-2.890625, -8.25)"><foreignObject width="5.78125" height="16.5" style="width: 9px; height: 12px;"><div xmlns="http://www.w3.org/1999/xhtml" style="display: table-cell; white-space: nowrap; line-height: 1.5;"><span class="edgeLabel"><p>1</p></span></div></foreignObject></g></g><g class="edgeTerminals" transform="translate(324.39062750000016, 821.5000021428572)"><g class="inner" transform="translate(-2.890625, -8.25)"><foreignObject width="5.78125" height="16.5" style="width: 9px; height: 12px;"><div xmlns="http://www.w3.org/1999/xhtml" style="display: table-cell; white-space: nowrap; line-height: 1.5;"><span class="edgeLabel"><p>1</p></span></div></foreignObject></g></g><g class="edgeTerminals" transform="translate(324.39062750000016, 1087.500002142857)"><g class="inner" transform="translate(-2.890625, -8.25)"><foreignObject width="5.78125" height="16.5" style="width: 9px; height: 12px;"><div xmlns="http://www.w3.org/1999/xhtml" style="display: table-cell; white-space: nowrap; line-height: 1.5;"><span class="edgeLabel"><p>1</p></span></div></foreignObject></g></g><g class="edgeTerminals" transform="translate(229.4628903125, 227.49999973214284)"><g class="inner" transform="translate(-2.0234375, -8.25)"/><foreignObject width="4.046875" height="16.5" style="width: 9px; height: 12px;"><div xmlns="http://www.w3.org/1999/xhtml" style="display: table-cell; white-space: nowrap; line-height: 1.5;"><span class="edgeLabel"><p>*</p></span></div></foreignObject></g><g class="edgeTerminals" transform="translate(109.53515812499992, 541.5000016071428)"><g class="inner" transform="translate(-2.0234375, -8.25)"/><foreignObject width="4.046875" height="16.5" style="width: 9px; height: 12px;"><div xmlns="http://www.w3.org/1999/xhtml" style="display: table-cell; white-space: nowrap; line-height: 1.5;"><span class="edgeLabel"><p>*</p></span></div></foreignObject></g><g class="edgeTerminals" transform="translate(349.3906274999998, 541.5000021428572)"><g class="inner" transform="translate(-2.0234375, -8.25)"/><foreignObject width="4.046875" height="16.5" style="width: 9px; height: 12px;"><div xmlns="http://www.w3.org/1999/xhtml" style="display: table-cell; white-space: nowrap; line-height: 1.5;"><span class="edgeLabel"><p>*</p></span></div></foreignObject></g><g class="edgeTerminals" transform="translate(349.3906274999998, 855.5000021428572)"><g class="inner" transform="translate(-2.890625, -8.25)"/><foreignObject width="5.78125" height="16.5" style="width: 9px; height: 12px;"><div xmlns="http://www.w3.org/1999/xhtml" style="display: table-cell; white-space: nowrap; line-height: 1.5;"><span class="edgeLabel"><p>1</p></span></div></foreignObject></g><g class="edgeTerminals" transform="translate(349.3906274999998, 1121.500002142857)"><g class="inner" transform="translate(-2.0234375, -8.25)"/><foreignObject width="4.046875" height="16.5" style="width: 9px; height: 12px;"><div xmlns="http://www.w3.org/1999/xhtml" style="display: table-cell; white-space: nowrap; line-height: 1.5;"><span class="edgeLabel"><p>*</p></span></div></foreignObject></g></g><g class="nodes"><g class="node default" id="classId-SuperAdmin-0" transform="translate(219.462890625, 92)"><g class="basic label-container"><path d="M-154.1015625 -84 L154.1015625 -84 L154.1015625 84 L-154.1015625 84" stroke="none" stroke-width="0" fill="#ECECFF" style=""/><path d="M-154.1015625 -84 C-54.78339678834756 -84, 44.53476892330488 -84, 154.1015625 -84 M-154.1015625 -84 C-83.05989514938142 -84, -12.018227798762837 -84, 154.1015625 -84 M154.1015625 -84 C154.1015625 -43.40302697317097, 154.1015625 -2.806053946341933, 154.1015625 84 M154.1015625 -84 C154.1015625 -37.76472826235862, 154.1015625 8.470543475282767, 154.1015625 84 M154.1015625 84 C63.860156839387884 84, -26.381248821224233 84, -154.1015625 84 M154.1015625 84 C59.70856721477621 84, -34.68442807044758 84, -154.1015625 84 M-154.1015625 84 C-154.1015625 42.8837825554635, -154.1015625 1.767565110926995, -154.1015625 -84 M-154.1015625 84 C-154.1015625 46.757964231857, -154.1015625 9.515928463714005, -154.1015625 -84" stroke="#9370DB" stroke-width="1.3" fill="none" stroke-dasharray="0 0" style=""/></g><g class="annotation-group text" transform="translate(0, -60)"/><g class="label-group text" transform="translate(-45.1875, -60)"><g class="label" style="font-weight: bolder" transform="translate(0,-12)"><foreignObject width="90.375" height="24"><div xmlns="http://www.w3.org/1999/xhtml" style="display: table-cell; white-space: nowrap; line-height: 1.5; max-width: 133px; text-align: center;"><span class="nodeLabel markdown-node-label" style=""><p>SuperAdmin</p></span></div></foreignObject></g></g><g class="members-group text" transform="translate(-142.1015625, -12)"><g class="label" style="" transform="translate(0,-12)"><foreignObject width="112.078125" height="24"><div xmlns="http://www.w3.org/1999/xhtml" style="display: table-cell; white-space: nowrap; line-height: 1.5; max-width: 162px; text-align: center;"><span class="nodeLabel markdown-node-label" style=""><p>+String adminId</p></span></div></foreignObject></g><g class="label" style="" transform="translate(0,12)"><foreignObject width="94.5" height="24"><div xmlns="http://www.w3.org/1999/xhtml" style="display: table-cell; white-space: nowrap; line-height: 1.5; max-width: 144px; text-align: center;"><span class="nodeLabel markdown-node-label" style=""><p>+String email</p></span></div></foreignObject></g></g><g class="methods-group text" transform="translate(-142.1015625, 60)"><g class="label" style="" transform="translate(0,-12)"><foreignObject width="239.015625" height="24"><div xmlns="http://www.w3.org/1999/xhtml" style="display: table-cell; white-space: nowrap; line-height: 1.5; max-width: 271px; text-align: center;"><span class="nodeLabel markdown-node-label" style=""><p>+approveInstitution(institutionId)</p></span></div></foreignObject></g></g><g class="divider" style=""><path d="M-154.1015625 -36 C-39.616473092729706 -36, 74.86861631454059 -36, 154.1015625 -36 M-154.1015625 -36 C-88.50838504578456 -36, -22.91520759156913 -36, 154.1015625 -36" stroke="#9370DB" stroke-width="1.3" fill="none" stroke-dasharray="0 0" style=""/></g><g class="divider" style=""><path d="M-154.1015625 36 C-52.749122548788264 36, 48.60331740242347 36, 154.1015625 36 M-154.1015625 36 C-57.1634673275679 36, 39.7746278448642 36, 154.1015625 36" stroke="#9370DB" stroke-width="1.3" fill="none" stroke-dasharray="0 0" style=""/></g></g><g class="node default" id="classId-User-1" transform="translate(99.53515625, 684)"><g class="basic label-container"><path d="M-91.53515625 -120 L91.53515625 -120 L91.53515625 120 L-91.53515625 120" stroke="none" stroke-width="0" fill="#ECECFF" style=""/><path d="M-91.53515625 -120 C-27.86110452117525 -120, 35.8129472076495 -120, 91.53515625 -120 M-91.53515625 -120 C-49.84174253090045 -120, -8.148328811800894 -120, 91.53515625 -120 M91.53515625 -120 C91.53515625 -28.664614932487083, 91.53515625 62.67077013502583, 91.53515625 120 M91.53515625 -120 C91.53515625 -69.31117989973535, 91.53515625 -18.622359799470715, 91.53515625 120 M91.53515625 120 C33.10597426280518 120, -25.323207724389647 120, -91.53515625 120 M91.53515625 120 C20.899825272830014 120, -49.73550570433997 120, -91.53515625 120 M-91.53515625 120 C-91.53515625 66.31246894900633, -91.53515625 12.62493789801266, -91.53515625 -120 M-91.53515625 120 C-91.53515625 64.60650881100369, -91.53515625 9.213017622007385, -91.53515625 -120" stroke="#9370DB" stroke-width="1.3" fill="none" stroke-dasharray="0 0" style=""/></g><g class="annotation-group text" transform="translate(0, -96)"/><g class="label-group text" transform="translate(-16.8828125, -96)"><g class="label" style="font-weight: bolder" transform="translate(0,-12)"><foreignObject width="33.765625" height="24"><div xmlns="http://www.w3.org/1999/xhtml" style="display: table-cell; white-space: nowrap; line-height: 1.5; max-width: 82px; text-align: center;"><span class="nodeLabel markdown-node-label" style=""><p>User</p></span></div></foreignObject></g></g><g class="members-group text" transform="translate(-79.53515625, -48)"><g class="label" style="" transform="translate(0,-12)"><foreignObject width="98.34375" height="24"><div xmlns="http://www.w3.org/1999/xhtml" style="display: table-cell; white-space: nowrap; line-height: 1.5; max-width: 149px; text-align: center;"><span class="nodeLabel markdown-node-label" style=""><p>+String userId</p></span></div></foreignObject></g><g class="label" style="" transform="translate(0,12)"><foreignObject width="142.1875" height="24"><div xmlns="http://www.w3.org/1999/xhtml" style="display: table-cell; white-space: nowrap; line-height: 1.5; max-width: 187px; text-align: center;"><span class="nodeLabel markdown-node-label" style=""><p>+String institutionId</p></span></div></foreignObject></g><g class="label" style="" transform="translate(0,36)"><foreignObject width="94.5" height="24"><div xmlns="http://www.w3.org/1999/xhtml" style="display: table-cell; white-space: nowrap; line-height: 1.5; max-width: 144px; text-align: center;"><span class="nodeLabel markdown-node-label" style=""><p>+String email</p></span></div></foreignObject></g><g class="label" style="" transform="translate(0,60)"><foreignObject width="83.0625" height="24"><div xmlns="http://www.w3.org/1999/xhtml" style="display: table-cell; white-space: nowrap; line-height: 1.5; max-width: 132px; text-align: center;"><span class="nodeLabel markdown-node-label" style=""><p>+String role</p></span></div></foreignObject></g></g><g class="methods-group text" transform="translate(-79.53515625, 72)"><g class="label" style="" transform="translate(0,-12)"><foreignObject width="54.78125" height="24"><div xmlns="http://www.w3.org/1999/xhtml" style="display: table-cell; white-space: nowrap; line-height: 1.5; max-width: 108px; text-align: center;"><span class="nodeLabel markdown-node-label" style=""><p>+login()</p></span></div></foreignObject></g><g class="label" style="" transform="translate(0,12)"><foreignObject width="65.15625" height="24"><div xmlns="http://www.w3.org/1999/xhtml" style="display: table-cell; white-space: nowrap; line-height: 1.5; max-width: 116px; text-align: center;"><span class="nodeLabel markdown-node-label" style=""><p>+logout()</p></span></div></foreignObject></g></g><g class="divider" style=""><path d="M-91.53515625 -72 C-41.49234631348112 -72, 8.550463623037757 -72, 91.53515625 -72 M-91.53515625 -72 C-34.21545201445861 -72, 23.104252221082774 -72, 91.53515625 -72" stroke="#9370DB" stroke-width="1.3" fill="none" stroke-dasharray="0 0" style=""/></g><g class="divider" style=""><path d="M-91.53515625 48 C-25.810180177374136 48, 39.91479589525173 48, 91.53515625 48 M-91.53515625 48 C-45.40438995740298 48, 0.7263763351940469 48, 91.53515625 48" stroke="#9370DB" stroke-width="1.3" fill="none" stroke-dasharray="0 0" style=""/></g></g><g class="node default" id="classId-Institution-2" transform="translate(219.462890625, 370)"><g class="basic label-container"><path d="M-104.28515625 -120 L104.28515625 -120 L104.28515625 120 L-104.28515625 120" stroke="none" stroke-width="0" fill="#ECECFF" style=""/><path d="M-104.28515625 -120 C-62.03014737780215 -120, -19.775138505604303 -120, 104.28515625 -120 M-104.28515625 -120 C-42.67137865231332 -120, 18.942398945373355 -120, 104.28515625 -120 M104.28515625 -120 C104.28515625 -35.35777624493109, 104.28515625 49.284447510137824, 104.28515625 120 M104.28515625 -120 C104.28515625 -64.93298486945238, 104.28515625 -9.865969738904752, 104.28515625 120 M104.28515625 120 C54.11580971495977 120, 3.946463179919533 120, -104.28515625 120 M104.28515625 120 C55.29872970389262 120, 6.312303157785237 120, -104.28515625 120 M-104.28515625 120 C-104.28515625 50.74335208088847, -104.28515625 -18.51329583822306, -104.28515625 -120 M-104.28515625 120 C-104.28515625 53.967034457870525, -104.28515625 -12.06593108425895, -104.28515625 -120" stroke="#9370DB" stroke-width="1.3" fill="none" stroke-dasharray="0 0" style=""/></g><g class="annotation-group text" transform="translate(0, -96)"/><g class="label-group text" transform="translate(-38.6640625, -96)"><g class="label" style="font-weight: bolder" transform="translate(0,-12)"><foreignObject width="77.328125" height="24"><div xmlns="http://www.w3.org/1999/xhtml" style="display: table-cell; white-space: nowrap; line-height: 1.5; max-width: 117px; text-align: center;"><span class="nodeLabel markdown-node-label" style=""><p>Institution</p></span></div></foreignObject></g></g><g class="members-group text" transform="translate(-92.28515625, -48)"><g class="label" style="" transform="translate(0,-12)"><foreignObject width="142.1875" height="24"><div xmlns="http://www.w3.org/1999/xhtml" style="display: table-cell; white-space: nowrap; line-height: 1.5; max-width: 187px; text-align: center;"><span class="nodeLabel markdown-node-label" style=""><p>+String institutionId</p></span></div></foreignObject></g><g class="label" style="" transform="translate(0,12)"><foreignObject width="93.96875" height="24"><div xmlns="http://www.w3.org/1999/xhtml" style="display: table-cell; white-space: nowrap; line-height: 1.5; max-width: 142px; text-align: center;"><span class="nodeLabel markdown-node-label" style=""><p>+String name</p></span></div></foreignObject></g><g class="label" style="" transform="translate(0,36)"><foreignObject width="107.296875" height="24"><div xmlns="http://www.w3.org/1999/xhtml" style="display: table-cell; white-space: nowrap; line-height: 1.5; max-width: 157px; text-align: center;"><span class="nodeLabel markdown-node-label" style=""><p>+String domain</p></span></div></foreignObject></g><g class="label" style="" transform="translate(0,60)"><foreignObject width="137.0625" height="24"><div xmlns="http://www.w3.org/1999/xhtml" style="display: table-cell; white-space: nowrap; line-height: 1.5; max-width: 185px; text-align: center;"><span class="nodeLabel markdown-node-label" style=""><p>+Boolean isVerified</p></span></div></foreignObject></g></g><g class="methods-group text" transform="translate(-92.28515625, 72)"><g class="label" style="" transform="translate(0,-12)"><foreignObject width="145.90625" height="24"><div xmlns="http://www.w3.org/1999/xhtml" style="display: table-cell; white-space: nowrap; line-height: 1.5; max-width: 184px; text-align: center;"><span class="nodeLabel markdown-node-label" style=""><p>+createCommittee()</p></span></div></foreignObject></g><g class="label" style="" transform="translate(0,12)"><foreignObject width="128.53125" height="24"><div xmlns="http://www.w3.org/1999/xhtml" style="display: table-cell; white-space: nowrap; line-height: 1.5; max-width: 173px; text-align: center;"><span class="nodeLabel markdown-node-label" style=""><p>+registerCollege()</p></span></div></foreignObject></g></g><g class="divider" style=""><path d="M-104.28515625 -72 C-36.95768289047001 -72, 30.36979046905998 -72, 104.28515625 -72 M-104.28515625 -72 C-38.59984116195163 -72, 27.08547392609674 -72, 104.28515625 -72" stroke="#9370DB" stroke-width="1.3" fill="none" stroke-dasharray="0 0" style=""/></g><g class="divider" style=""><path d="M-104.28515625 48 C-56.391466954728344 48, -8.497777659456688 48, 104.28515625 48 M-104.28515625 48 C-42.004931920072245 48, 20.27529240985551 48, 104.28515625 48" stroke="#9370DB" stroke-width="1.3" fill="none" stroke-dasharray="0 0" style=""/></g></g><g class="node default" id="classId-Complaint-3" transform="translate(339.390625, 684)"><g class="basic label-container"><path d="M-98.3203125 -120 L98.3203125 -120 L98.3203125 120 L-98.3203125 120" stroke="none" stroke-width="0" fill="#ECECFF" style=""/><path d="M-98.3203125 -120 C-38.71031620214166 -120, 20.899680095716676 -120, 98.3203125 -120 M-98.3203125 -120 C-56.49520235855071 -120, -14.670092217101427 -120, 98.3203125 -120 M98.3203125 -120 C98.3203125 -60.85801687229472, 98.3203125 -1.7160337445894385, 98.3203125 120 M98.3203125 -120 C98.3203125 -45.22082135848619, 98.3203125 29.558357283027618, 98.3203125 120 M98.3203125 120 C57.38859484910725 120, 16.4568771982145 120, -98.3203125 120 M98.3203125 120 C29.214845745109102 120, -39.890621009781796 120, -98.3203125 120 M-98.3203125 120 C-98.3203125 55.29969075283125, -98.3203125 -9.400618494337493, -98.3203125 -120 M-98.3203125 120 C-98.3203125 37.59039650461581, -98.3203125 -44.81920699076838, -98.3203125 -120" stroke="#9370DB" stroke-width="1.3" fill="none" stroke-dasharray="0 0" style=""/></g><g class="annotation-group text" transform="translate(0, -96)"/><g class="label-group text" transform="translate(-37.859375, -96)"><g class="label" style="font-weight: bolder" transform="translate(0,-12)"><foreignObject width="75.71875" height="24"><div xmlns="http://www.w3.org/1999/xhtml" style="display: table-cell; white-space: nowrap; line-height: 1.5; max-width: 118px; text-align: center;"><span class="nodeLabel markdown-node-label" style=""><p>Complaint</p></span></div></foreignObject></g></g><g class="members-group text" transform="translate(-86.3203125, -48)"><g class="label" style="" transform="translate(0,-12)"><foreignObject width="126.46875" height="24"><div xmlns="http://www.w3.org/1999/xhtml" style="display: table-cell; white-space: nowrap; line-height: 1.5; max-width: 174px; text-align: center;"><span class="nodeLabel markdown-node-label" style=""><p>+String trackingId</p></span></div></foreignObject></g><g class="label" style="" transform="translate(0,12)"><foreignObject width="116.9375" height="24"><div xmlns="http://www.w3.org/1999/xhtml" style="display: table-cell; white-space: nowrap; line-height: 1.5; max-width: 164px; text-align: center;"><span class="nodeLabel markdown-node-label" style=""><p>+String category</p></span></div></foreignObject></g><g class="label" style="" transform="translate(0,36)"><foreignObject width="134.78125" height="24"><div xmlns="http://www.w3.org/1999/xhtml" style="display: table-cell; white-space: nowrap; line-height: 1.5; max-width: 180px; text-align: center;"><span class="nodeLabel markdown-node-label" style=""><p>+String description</p></span></div></foreignObject></g><g class="label" style="" transform="translate(0,60)"><foreignObject width="97.59375" height="24"><div xmlns="http://www.w3.org/1999/xhtml" style="display: table-cell; white-space: nowrap; line-height: 1.5; max-width: 144px; text-align: center;"><span class="nodeLabel markdown-node-label" style=""><p>+String status</p></span></div></foreignObject></g><g class="label" style="" transform="translate(0,84)"><foreignObject width="117.546875" height="24"><div xmlns="http://www.w3.org/1999/xhtml" style="display: table-cell; white-space: nowrap; line-height: 1.5; max-width: 161px; text-align: center;"><span class="nodeLabel markdown-node-label" style=""><p>+Date createdAt</p></span></div></foreignObject></g></g><g class="methods-group text" transform="translate(-86.3203125, 96)"><g class="label" style="" transform="translate(0,-12)"><foreignObject width="114.203125" height="24"><div xmlns="http://www.w3.org/1999/xhtml" style="display: table-cell; white-space: nowrap; line-height: 1.5; max-width: 157px; text-align: center;"><span class="nodeLabel markdown-node-label" style=""><p>+updateStatus()</p></span></div></foreignObject></g></g><g class="divider" style=""><path d="M-98.3203125 -72 C-45.48850345489714 -72, 7.343305590205716 -72, 98.3203125 -72 M-98.3203125 -72 C-25.17651164851702 -72, 47.96728920296596 -72, 98.3203125 -72" stroke="#9370DB" stroke-width="1.3" fill="none" stroke-dasharray="0 0" style=""/></g><g class="divider" style=""><path d="M-98.3203125 72 C-55.18254820962477 72, -12.04478391924954 72, 98.3203125 72 M-98.3203125 72 C-27.040959817064547 72, 44.23839286587091 72, 98.3203125 72" stroke="#9370DB" stroke-width="1.3" fill="none" stroke-dasharray="0 0" style=""/></g></g><g class="node default" id="classId-ChatSession-4" transform="translate(339.390625, 974)"><g class="basic label-container"><path d="M-97.37890625 -96 L97.37890625 -96 L97.37890625 96 L-97.37890625 96" stroke="none" stroke-width="0" fill="#ECECFF" style=""/><path d="M-97.37890625 -96 C-34.01732699644042 -96, 29.344252257119166 -96, 97.37890625 -96 M-97.37890625 -96 C-29.731921171030294 -96, 37.91506390793941 -96, 97.37890625 -96 M97.37890625 -96 C97.37890625 -55.6899547444139, 97.37890625 -15.379909488827806, 97.37890625 96 M97.37890625 -96 C97.37890625 -33.574906591336294, 97.37890625 28.850186817327412, 97.37890625 96 M97.37890625 96 C31.333363659619792 96, -34.712178930760416 96, -97.37890625 96 M97.37890625 96 C28.42772932424694 96, -40.52344760150612 96, -97.37890625 96 M-97.37890625 96 C-97.37890625 55.99696495409976, -97.37890625 15.993929908199519, -97.37890625 -96 M-97.37890625 96 C-97.37890625 56.92373966105284, -97.37890625 17.847479322105684, -97.37890625 -96" stroke="#9370DB" stroke-width="1.3" fill="none" stroke-dasharray="0 0" style=""/></g><g class="annotation-group text" transform="translate(0, -72)"/><g class="label-group text" transform="translate(-44.2890625, -72)"><g class="label" style="font-weight: bolder" transform="translate(0,-12)"><foreignObject width="88.578125" height="24"><div xmlns="http://www.w3.org/1999/xhtml" style="display: table-cell; white-space: nowrap; line-height: 1.5; max-width: 130px; text-align: center;"><span class="nodeLabel markdown-node-label" style=""><p>ChatSession</p></span></div></foreignObject></g></g><g class="members-group text" transform="translate(-85.37890625, -24)"><g class="label" style="" transform="translate(0,-12)"><foreignObject width="118.21875" height="24"><div xmlns="http://www.w3.org/1999/xhtml" style="display: table-cell; white-space: nowrap; line-height: 1.5; max-width: 168px; text-align: center;"><span class="nodeLabel markdown-node-label" style=""><p>+String sessionId</p></span></div></foreignObject></g><g class="label" style="" transform="translate(0,12)"><foreignObject width="126.46875" height="24"><div xmlns="http://www.w3.org/1999/xhtml" style="display: table-cell; white-space: nowrap; line-height: 1.5; max-width: 174px; text-align: center;"><span class="nodeLabel markdown-node-label" style=""><p>+String trackingId</p></span></div></foreignObject></g></g><g class="methods-group text" transform="translate(-85.37890625, 48)"><g class="label" style="" transform="translate(0,-12)"><foreignObject width="105.203125" height="24"><div xmlns="http://www.w3.org/1999/xhtml" style="display: table-cell; white-space: nowrap; line-height: 1.5; max-width: 152px; text-align: center;"><span class="nodeLabel markdown-node-label" style=""><p>+startSession()</p></span></div></foreignObject></g><g class="label" style="" transform="translate(0,12)"><foreignObject width="97.796875" height="24"><div xmlns="http://www.w3.org/1999/xhtml" style="display: table-cell; white-space: nowrap; line-height: 1.5; max-width: 147px; text-align: center;"><span class="nodeLabel markdown-node-label" style=""><p>+endSession()</p></span></div></foreignObject></g></g><g class="divider" style=""><path d="M-97.37890625 -48 C-28.723934979263376 -48, 39.93103629147325 -48, 97.37890625 -48 M-97.37890625 -48 C-22.14950249132282 -48, 53.07990126735436 -48, 97.37890625 -48" stroke="#9370DB" stroke-width="1.3" fill="none" stroke-dasharray="0 0" style=""/></g><g class="divider" style=""><path d="M-97.37890625 24 C-21.355209908238578 24, 54.668486433522844 24, 97.37890625 24 M-97.37890625 24 C-21.547271534157375 24, 54.28436318168525 24, 97.37890625 24" stroke="#9370DB" stroke-width="1.3" fill="none" stroke-dasharray="0 0" style=""/></g></g><g class="node default" id="classId-ChatMessage-5" transform="translate(339.390625, 1252)"><g class="basic label-container"><path d="M-118.87109375 -108 L118.87109375 -108 L118.87109375 108 L-118.87109375 108" stroke="none" stroke-width="0" fill="#ECECFF" style=""/><path d="M-118.87109375 -108 C-61.30677644535173 -108, -3.7424591407034598 -108, 118.87109375 -108 M-118.87109375 -108 C-48.10890774727777 -108, 22.653278255444462 -108, 118.87109375 -108 M118.87109375 -108 C118.87109375 -23.400876800729677, 118.87109375 61.19824639854065, 118.87109375 108 M118.87109375 -108 C118.87109375 -40.35566056653964, 118.87109375 27.28867886692072, 118.87109375 108 M118.87109375 108 C51.09087149043543 108, -16.689350769129135 108, -118.87109375 108 M118.87109375 108 C27.23513182497139 108, -64.40083010005722 108, -118.87109375 108 M-118.87109375 108 C-118.87109375 57.034296991920904, -118.87109375 6.068593983841808, -118.87109375 -108 M-118.87109375 108 C-118.87109375 57.14985850055793, -118.87109375 6.299717001115866, -118.87109375 -108" stroke="#9370DB" stroke-width="1.3" fill="none" stroke-dasharray="0 0" style=""/></g><g class="annotation-group text" transform="translate(0, -84)"/><g class="label-group text" transform="translate(-47.3984375, -84)"><g class="label" style="font-weight: bolder" transform="translate(0,-12)"><foreignObject width="94.796875" height="24"><div xmlns="http://www.w3.org/1999/xhtml" style="display: table-cell; white-space: nowrap; line-height: 1.5; max-width: 136px; text-align: center;"><span class="nodeLabel markdown-node-label" style=""><p>ChatMessage</p></span></div></foreignObject></g></g><g class="members-group text" transform="translate(-106.87109375, -36)"><g class="label" style="" transform="translate(0,-12)"><foreignObject width="128.296875" height="24"><div xmlns="http://www.w3.org/1999/xhtml" style="display: table-cell; white-space: nowrap; line-height: 1.5; max-width: 176px; text-align: center;"><span class="nodeLabel markdown-node-label" style=""><p>+String messageId</p></span></div></foreignObject></g><g class="label" style="" transform="translate(0,12)"><foreignObject width="110.21875" height="24"><div xmlns="http://www.w3.org/1999/xhtml" style="display: table-cell; white-space: nowrap; line-height: 1.5; max-width: 155px; text-align: center;"><span class="nodeLabel markdown-node-label" style=""><p>+String content</p></span></div></foreignObject></g><g class="label" style="" transform="translate(0,36)"><foreignObject width="122.84375" height="24"><div xmlns="http://www.w3.org/1999/xhtml" style="display: table-cell; white-space: nowrap; line-height: 1.5; max-width: 165px; text-align: center;"><span class="nodeLabel markdown-node-label" style=""><p>+Date timestamp</p></span></div></foreignObject></g><g class="label" style="" transform="translate(0,60)"><foreignObject width="166.34375" height="24"><div xmlns="http://www.w3.org/1999/xhtml" style="display: table-cell; white-space: nowrap; line-height: 1.5; max-width: 210px; text-align: center;"><span class="nodeLabel markdown-node-label" style=""><p>+String senderPseudoId</p></span></div></foreignObject></g></g><g class="methods-group text" transform="translate(-106.87109375, 84)"><g class="label" style="" transform="translate(0,-12)"><foreignObject width="111.203125" height="24"><div xmlns="http://www.w3.org/1999/xhtml" style="display: table-cell; white-space: nowrap; line-height: 1.5; max-width: 160px; text-align: center;"><span class="nodeLabel markdown-node-label" style=""><p>+sendMessage()</p></span></div></foreignObject></g></g><g class="divider" style=""><path d="M-118.87109375 -60 C-54.44884934365234 -60, 9.973395062695317 -60, 118.87109375 -60 M-118.87109375 -60 C-70.64896876939777 -60, -22.426843788795537 -60, 118.87109375 -60" stroke="#9370DB" stroke-width="1.3" fill="none" stroke-dasharray="0 0" style=""/></g><g class="divider" style=""><path d="M-118.87109375 60 C-44.770168812266945 60, 29.33075612546611 60, 118.87109375 60 M-118.87109375 60 C-31.035578192937308 60, 56.799937364125384 60, 118.87109375 60" stroke="#9370DB" stroke-width="1.3" fill="none" stroke-dasharray="0 0" style=""/></g></g></g></g></g></svg>