<svg width="187" height="188" viewBox="0 0 187 188" fill="none" xmlns="http://www.w3.org/2000/svg">
<path d="M96.1967 16.0398C97.1076 16.4271 97.9173 16.8578 98.7562 17.3835C99.078 17.583 99.3997 17.7826 99.7313 17.9882C100.075 18.2043 100.419 18.4204 100.774 18.643C101.516 19.1015 102.259 19.5596 103.001 20.0174C103.375 20.2484 103.749 20.4793 104.134 20.7173C120.298 30.6932 137.747 39.0302 156.214 43.7263C157.414 44.0331 158.611 44.3507 159.808 44.669C164.232 45.8406 168.66 46.977 173.128 47.9733C175.327 48.4715 175.327 48.4715 175.827 48.9704C175.879 49.7978 175.899 50.6272 175.907 51.4561C175.913 51.9903 175.919 52.5245 175.924 53.0748C175.93 53.955 175.93 53.955 175.935 54.8529C175.936 55.1543 175.938 55.4557 175.94 55.7662C175.95 57.3775 175.956 58.9887 175.96 60.6C175.964 61.905 175.974 63.2097 175.988 64.5146C176.232 86.6496 172.732 109.337 162.242 129.072C161.796 129.916 161.366 130.766 160.937 131.618C154.445 144.38 144.46 155.888 133.279 164.74C132.761 165.167 132.243 165.596 131.726 166.025C123.064 173.169 113.315 178.43 103.263 183.366C102.839 183.579 102.416 183.791 101.979 184.01C99.1833 185.355 96.469 186.554 93.3464 185.73C92.2617 185.316 91.2343 184.841 90.1932 184.327C89.8065 184.144 89.4198 183.962 89.0213 183.773C76.6795 177.845 65.2741 170.591 54.9723 161.575C54.5721 161.226 54.1718 160.876 53.7594 160.517C49.3922 156.649 45.468 152.579 41.8458 148.008C41.4648 147.55 41.0838 147.092 40.6912 146.619C33.123 137.435 27.9313 126.96 23.7403 115.9C23.5133 115.307 23.5133 115.307 23.2817 114.701C22.1788 111.758 21.2939 108.797 20.5152 105.753C20.3978 105.3 20.2804 104.848 20.1595 104.381C19.4514 101.602 18.4701 97.0933 18.2437 95.9627C18.0174 94.8322 18.0823 95.3236 17.856 94.193C17.6297 93.0625 17.6252 92.757 17.5306 92.0361C17.4729 91.5963 17.4151 91.1565 17.3556 90.7033C17.2967 90.2413 17.2377 89.7793 17.177 89.3033C17.1181 88.8606 17.0592 88.4178 16.9984 87.9617C16.2617 82.2702 15.9789 76.6461 16.0012 70.9087C16.0021 70.2581 16.0027 69.6074 16.0032 68.9568C16.0049 67.2655 16.0093 65.5742 16.0143 63.883C16.019 62.1486 16.021 60.4143 16.0233 58.68C16.0281 55.2927 16.0358 51.9055 16.0454 48.5182C16.3851 48.4446 16.7248 48.371 17.0748 48.2951C18.6475 47.9532 20.2197 47.6086 21.7918 47.264C22.3259 47.1483 22.8599 47.0326 23.4102 46.9134C28.7291 45.7437 33.9266 44.2366 39.13 42.6393C39.5986 42.4986 40.0671 42.358 40.5499 42.2131C50.3866 39.2416 59.7563 35.3357 69.0041 30.8814C69.7773 30.5163 70.5506 30.1512 71.3239 29.7861C79.2515 25.9868 86.9586 21.4628 94.197 16.482C95.2571 15.9579 95.2571 15.9579 96.1967 16.0398Z" fill="url(#paint0_linear_1_9)"/>
<path d="M102.642 41.5347C104.894 42.777 106.784 44.2541 108.677 45.9846C108.948 46.2143 109.22 46.4439 109.499 46.6806C117.614 54.0167 125.642 70.7007 126.217 81.5974C125.956 85.3352 123.773 88.058 121.351 90.755C119.812 90.755 122.845 90.755 121.351 90.755C121.008 91.2055 121.008 91.2055 121.008 91.2055C121.008 91.2055 121.014 91.2898 119.271 92.4225C118.136 93.4782 117.093 94.5738 116.061 95.7294C115.694 96.1177 115.328 96.5059 114.951 96.9059C114.054 97.8601 113.769 98.9169 112.298 99.7995C110.827 100.682 110.94 100.704 110.148 100.915C109.356 101.126 105.611 100.967 101.322 101.011C99.3292 101.032 97.2575 100.965 95.2655 101.011C93.3402 101.055 91.4155 101.08 89.4897 101.09C88.7581 101.098 88.0265 101.112 87.2951 101.134C83.6615 101.24 80.8373 101.3 77.9717 98.7401C77.3314 98.049 76.7019 97.3476 76.087 96.6339C75.5237 96.1131 74.9541 95.5988 74.3737 95.097C73.879 94.6486 73.3845 94.1999 72.8902 93.7509C72.6338 93.5218 72.3774 93.2928 72.1131 93.0567C70.9568 92.0024 70.3159 91.4114 68.8448 89.8505C69.1526 89.8505 68.546 89.8505 68.8448 89.8505C66.0691 86.807 64.6076 84.0252 64.6559 79.8988C64.8424 77.7059 65.55 75.8031 66.3553 73.7682C66.6008 73.1245 66.6008 73.1245 66.8513 72.4678C71.6879 59.9554 77.5852 46.0726 90.6085 40.3106C94.9637 38.5798 98.5135 39.6018 102.642 41.5347Z" fill="#140D56"/>
<path opacity="0.86" d="M97.1398 40.6195C96.7022 40.8197 96.7022 40.8197 96.2557 41.024C95.2779 41.4299 95.2779 41.4299 94.9897 42.2871C94.849 43.3777 94.849 43.3777 94.9049 44.6613C94.9507 47.6642 94.747 51.2148 93.066 53.734C92.8771 54.5021 92.7104 55.2758 92.5568 56.0517C91.0263 62.2968 88.3175 67.8763 83.108 71.8231C81.7251 72.6207 80.3323 73.3119 78.8822 73.9782C76.7698 74.9561 75.3661 75.808 74.4407 78.0659C74.2668 78.5428 74.0929 79.0196 73.9138 79.511C73.1367 81.5721 72.5694 82.5719 70.6039 83.6093C70.2619 83.7544 69.92 83.8996 69.5677 84.0491C68.5435 84.5225 67.971 84.9661 67.2656 85.8421C66.9366 87.2478 66.9366 87.2478 66.813 88.5555C65.1805 87.1574 64.2124 85.5742 63.9835 83.4106C63.9242 80.2083 64.5082 77.699 65.6814 74.7343C65.927 74.0906 65.927 74.0906 66.1775 73.4339C71.0325 60.8739 76.9145 47.1486 89.9099 41.266C92.2986 40.3101 94.6087 40.2746 97.1398 40.6195Z" fill="url(#paint1_linear_1_9)"/>
<path d="M70.0003 101.073C70.637 101.071 71.2738 101.069 71.9105 101.066C73.6332 101.06 75.3558 101.06 77.0784 101.061C78.5193 101.061 79.9602 101.059 81.4011 101.057C84.8016 101.052 88.2021 101.052 91.6027 101.054C95.1049 101.057 98.607 101.052 102.109 101.042C105.122 101.034 108.135 101.031 111.147 101.033C112.944 101.034 114.741 101.032 116.538 101.026C118.228 101.02 119.918 101.021 121.608 101.027C122.519 101.029 123.431 101.024 124.343 101.018C128.185 101.041 131.404 101.346 134.439 103.939C134.722 104.168 135.004 104.397 135.295 104.633C137.998 108.122 138.213 111.947 138.172 116.211C138.173 116.769 138.173 117.327 138.174 117.902C138.173 119.076 138.168 120.249 138.159 121.422C138.145 123.214 138.149 125.006 138.155 126.798C138.152 127.942 138.148 129.086 138.144 130.23C138.145 130.763 138.146 131.296 138.148 131.846C138.1 136.027 137.345 138.83 134.381 141.902C130.214 145.809 125.299 145.374 119.95 145.335C119.081 145.338 118.212 145.341 117.343 145.346C115.067 145.356 112.79 145.355 110.514 145.349C106.866 145.341 103.218 145.345 99.5703 145.361C98.3007 145.363 97.0315 145.357 95.762 145.351C94.9806 145.352 94.1992 145.354 93.4179 145.356C93.0681 145.352 92.7184 145.347 92.3581 145.343C88.7068 145.37 86.2431 146.771 83.4328 149.077C83.0313 149.399 83.0313 149.399 82.6217 149.727C81.7479 150.43 80.8786 151.138 80.0097 151.847C79.3839 152.354 78.758 152.862 78.1319 153.369C77.1948 154.13 76.2578 154.89 75.3214 155.652C71.9208 158.416 71.9208 158.416 70.3345 159.676C69.8812 160.037 69.8812 160.037 69.4187 160.405C68.6937 160.891 68.6937 160.891 67.7885 160.891C67.7885 155.668 67.7885 150.445 67.7885 145.063C66.2947 145.063 64.993 145.421 63.2621 145.063C59.5576 144.297 57.356 142.043 55.5672 139.184C54.0907 136.03 54.0109 133.251 54.029 129.801C54.0277 129.252 54.0264 128.704 54.025 128.139C54.0241 126.983 54.0266 125.828 54.0323 124.672C54.0395 122.91 54.0323 121.148 54.0237 119.385C54.0246 118.259 54.0263 117.133 54.029 116.008C54.0262 115.484 54.0235 114.96 54.0206 114.42C54.0578 110.125 54.7187 107.092 57.8304 103.911C61.6442 100.929 65.3416 101.064 70.0003 101.073Z" fill="#FBFBFC"/>
<path d="M119.743 118.341C121.401 119.06 122.533 119.889 123.365 121.506C123.615 123.723 123.606 124.675 122.544 126.65C121.556 127.835 120.832 128.638 119.268 128.894C116.786 128.936 115.345 128.633 113.406 126.933C112.352 125.592 112.288 124.113 112.323 122.426C112.643 120.775 113.576 119.951 114.764 118.793C116.326 118.013 118.033 118.175 119.743 118.341Z" fill="#180F50"/>
<path d="M98.9216 118.341C100.363 119.074 101.285 119.685 102.26 120.969C102.809 122.89 102.791 124.518 102.033 126.368C100.576 128.116 99.1172 128.661 96.8847 128.94C94.7205 128.67 93.3162 127.863 91.9623 126.142C91.5247 124.568 91.3691 123.105 91.6794 121.506C93.4566 118.437 95.5825 117.931 98.9216 118.341Z" fill="#161254"/>
<path d="M78.0991 118.34C79.7564 119.06 80.8891 119.889 81.7202 121.506C81.9687 123.705 81.9517 124.678 80.9281 126.65C79.4047 128.425 78.6978 128.663 76.3734 128.967C74.4384 128.906 73.2996 128.224 71.9248 126.892C70.8212 125.342 70.6197 123.823 70.8569 121.958C72.5844 118.568 74.5159 117.93 78.0991 118.34Z" fill="#162372"/>
<path d="M65.8372 85.298C66.0635 86.4284 68.5049 89.5054 70.0891 91.0884C70.1249 91.0887 70.1293 91.0889 70.0896 91.0889C70.0894 91.0887 70.0893 91.0885 70.0891 91.0884C69.9209 91.087 69.0593 91.0834 68.8342 91.0889C59.8422 91.588 51.0554 95.0605 44.9788 101.812C40.1876 107.823 38.3905 114.261 37.9523 121.821C35.8316 118.643 35.7608 115.14 36.1417 111.42C37.9756 103.032 43.1505 96.1178 50.2707 91.3715C56.7521 87.4935 56.7521 87.4935 60.1316 86.9994L60.0043 85.6515C59.6232 79.7181 61.3712 75.1733 63.7527 69.8148L64.377 68.376C69.8103 55.8998 76.3094 42.623 89.6344 37.1114C93.5886 35.6977 96.5713 35.6059 100.501 37.0284L101.521 37.3952C104.643 38.5759 107.291 40.1717 109.922 42.229L111.085 43.1264C118.498 49.3016 122.875 58.5233 126.59 67.2156C126.952 68.0619 127.32 68.906 127.692 69.7483C130.25 75.5719 131.848 80.6028 131.649 86.9994L133.074 87.5806C136.828 89.1437 140.235 90.7524 143.417 93.3306L144.554 94.228C149.701 98.5432 153.397 104.331 154.733 110.967C155.046 114.627 154.403 117.866 153.375 121.369H152.923L152.887 120.321C152.44 111.889 149.778 104.517 143.417 98.7573C137.87 94.4691 131.741 92.1786 124.717 91.7195L122.997 91.6047C122.566 91.5773 121.277 91.3997 120.833 91.3715C121.627 89.6585 123.544 88.4336 124.705 86.9552C126.315 84.6709 126.07 81.9668 125.764 79.3115C124.519 73.4536 121.85 67.9825 119.286 62.6074L118.869 61.7228C114.758 53.0473 109.411 45.6769 100.445 41.5789C96.7658 40.2691 93.5984 40.3451 90.0345 41.9168C80.8064 46.3969 76.0655 54.4706 71.9002 63.4836L71.4886 64.3682C70.5208 66.4656 69.6106 68.5832 68.7317 70.7192L68.2866 71.7933C65.3334 78.4422 65.6109 84.1674 65.8372 85.298Z" fill="white"/>
<path d="M69.6379 91.04C69.6482 90.968 69.7729 91.0149 69.6379 91.04Z" fill="#F4F7FA"/>
<path d="M92.9489 101.019C92.9489 101.019 72.5802 85.643 73.0328 81.7991C73.4855 77.9552 73.0328 82.0252 71.2223 83.1558C69.4117 84.2864 69.4749 83.8559 68.7327 84.5125C67.6011 85.1908 66.6959 85.8691 66.9222 87.2258C67.1485 88.5825 78.5242 101.019 80.5527 101.019H92.9489Z" fill="#0A082F"/>
<path d="M120.56 84.7385C120.56 75.7473 120.325 63.71 96.3744 68.4584C86.4937 70.4173 79.3699 71.8501 75.9752 75.694C72.5804 79.5379 72.1997 82.8901 73.4856 83.1557C74.0446 83.2712 70.9961 84.7385 75.2962 85.8691C78.8297 91.1145 83.9082 101.245 93.8544 101.245H110.602C115.246 98.2809 120.56 89.037 120.56 84.7385Z" fill="#0A082F"/>
<defs>
<linearGradient id="paint0_linear_1_9" x1="16" y1="101" x2="176" y2="101" gradientUnits="userSpaceOnUse">
<stop stop-color="#0995E2"/>
<stop offset="0.25" stop-color="#1B7ADA"/>
<stop offset="0.451936" stop-color="#274CC4"/>
<stop offset="0.634641" stop-color="#3132B3"/>
<stop offset="1" stop-color="#220B70"/>
</linearGradient>
<linearGradient id="paint1_linear_1_9" x1="80.5596" y1="88.5555" x2="80.5596" y2="40.4201" gradientUnits="userSpaceOnUse">
<stop stop-color="#164BAA"/>
<stop offset="1" stop-color="#16429B"/>
</linearGradient>
</defs>
</svg>
